<svg width="36" height="36" viewBox="0 0 36 36" fill="none" xmlns="http://www.w3.org/2000/svg">
<rect x="0.5" y="0.5" width="35" height="35" rx="17.5" fill="white"/>
<rect x="0.5" y="0.5" width="35" height="35" rx="17.5" stroke="#E4E4E7"/>
<path d="M9.66699 24.666H26.3337V26.3327H9.66699V24.666ZM11.3337 17.9993H13.0003V23.8327H11.3337V17.9993ZM15.5003 17.9993H17.167V23.8327H15.5003V17.9993ZM18.8337 17.9993H20.5003V23.8327H18.8337V17.9993ZM23.0003 17.9993H24.667V23.8327H23.0003V17.9993ZM9.66699 13.8327L18.0003 9.66602L26.3337 13.8327V17.166H9.66699V13.8327ZM11.3337 14.8627V15.4993H24.667V14.8627L18.0003 11.5294L11.3337 14.8627ZM18.0003 14.666C17.5401 14.666 17.167 14.2929 17.167 13.8327C17.167 13.3724 17.5401 12.9993 18.0003 12.9993C18.4606 12.9993 18.8337 13.3724 18.8337 13.8327C18.8337 14.2929 18.4606 14.666 18.0003 14.666Z" fill="#09090B"/>
</svg>
