<svg width="18" height="18" viewBox="0 0 18 18" fill="none" xmlns="http://www.w3.org/2000/svg">
<path d="M0.666992 15.666H17.3337V17.3327H0.666992V15.666ZM2.33366 8.99935H4.00033V14.8327H2.33366V8.99935ZM6.50033 8.99935H8.16699V14.8327H6.50033V8.99935ZM9.83366 8.99935H11.5003V14.8327H9.83366V8.99935ZM14.0003 8.99935H15.667V14.8327H14.0003V8.99935ZM0.666992 4.83268L9.00033 0.666016L17.3337 4.83268V8.16602H0.666992V4.83268ZM2.33366 5.86274V6.49935H15.667V5.86274L9.00033 2.52941L2.33366 5.86274ZM9.00033 5.66602C8.54008 5.66602 8.16699 5.29292 8.16699 4.83268C8.16699 4.37245 8.54008 3.99935 9.00033 3.99935C9.46058 3.99935 9.83366 4.37245 9.83366 4.83268C9.83366 5.29292 9.46058 5.66602 9.00033 5.66602Z" fill="#52525B"/>
</svg>
