<svg width="36" height="37" viewBox="0 0 36 37" fill="none" xmlns="http://www.w3.org/2000/svg">
<rect x="0.5" y="1" width="35" height="35" rx="17.5" fill="white"/>
<rect x="0.5" y="1" width="35" height="35" rx="17.5" stroke="#E4E4E7"/>
<path d="M9.66699 25.166H26.3337V26.8327H9.66699V25.166ZM11.3337 18.4993H13.0003V24.3327H11.3337V18.4993ZM15.5003 18.4993H17.167V24.3327H15.5003V18.4993ZM18.8337 18.4993H20.5003V24.3327H18.8337V18.4993ZM23.0003 18.4993H24.667V24.3327H23.0003V18.4993ZM9.66699 14.3327L18.0003 10.166L26.3337 14.3327V17.666H9.66699V14.3327ZM11.3337 15.3627V15.9993H24.667V15.3627L18.0003 12.0294L11.3337 15.3627ZM18.0003 15.166C17.5401 15.166 17.167 14.7929 17.167 14.3327C17.167 13.8724 17.5401 13.4993 18.0003 13.4993C18.4606 13.4993 18.8337 13.8724 18.8337 14.3327C18.8337 14.7929 18.4606 15.166 18.0003 15.166Z" fill="#52525B"/>
</svg>
