<svg width="36" height="37" viewBox="0 0 36 37" fill="none" xmlns="http://www.w3.org/2000/svg">
<rect x="0.5" y="1" width="35" height="35" rx="17.5" fill="white"/>
<rect x="0.5" y="1" width="35" height="35" rx="17.5" stroke="#E4E4E7"/>
<path d="M11.1526 10.8556L18 9.33398L24.8474 10.8556C25.2287 10.9404 25.5 11.2785 25.5 11.6691V19.9914C25.5 21.6631 24.6645 23.2243 23.2735 24.1517L18 27.6673L12.7265 24.1517C11.3355 23.2243 10.5 21.6631 10.5 19.9914V11.6691C10.5 11.2785 10.7713 10.9404 11.1526 10.8556ZM12.1667 12.3376V19.9914C12.1667 21.1059 12.7237 22.1466 13.651 22.7649L18 25.6642L22.349 22.7649C23.2763 22.1466 23.8333 21.1059 23.8333 19.9914V12.3376L18 11.0413L12.1667 12.3376ZM18.8333 16.834H21.3333L17.1667 22.6673V18.5007H14.6667L18.8333 12.6673V16.834Z" fill="#7C3AED"/>
</svg>
