<svg width="18" height="18" viewBox="0 0 18 18" fill="none" xmlns="http://www.w3.org/2000/svg">
<path d="M9.00033 17.3337C4.39795 17.3337 0.666992 13.6027 0.666992 9.00033C0.666992 4.39795 4.39795 0.666992 9.00033 0.666992C13.6027 0.666992 17.3337 4.39795 17.3337 9.00033C17.3337 13.6027 13.6027 17.3337 9.00033 17.3337ZM9.00033 15.667C12.6822 15.667 15.667 12.6822 15.667 9.00033C15.667 5.31843 12.6822 2.33366 9.00033 2.33366C5.31843 2.33366 2.33366 5.31843 2.33366 9.00033C2.33366 12.6822 5.31843 15.667 9.00033 15.667ZM8.16916 12.3337L4.63365 8.79816L5.81217 7.61958L8.16916 9.97666L12.8832 5.26259L14.0617 6.4411L8.16916 12.3337Z" fill="#22C55E"/>
</svg>
