<svg width="18" height="18" viewBox="0 0 18 18" fill="none" xmlns="http://www.w3.org/2000/svg">
<path d="M9.00033 17.3337C4.39795 17.3337 0.666992 13.6027 0.666992 9.00033C0.666992 4.39795 4.39795 0.666992 9.00033 0.666992C13.6027 0.666992 17.3337 4.39795 17.3337 9.00033C17.3337 13.6027 13.6027 17.3337 9.00033 17.3337ZM9.00033 15.667C12.6822 15.667 15.667 12.6822 15.667 9.00033C15.667 5.31843 12.6822 2.33366 9.00033 2.33366C5.31843 2.33366 2.33366 5.31843 2.33366 9.00033C2.33366 12.6822 5.31843 15.667 9.00033 15.667ZM9.00033 7.82183L11.3573 5.46479L12.5358 6.6433L10.1788 9.00033L12.5358 11.3573L11.3573 12.5358L9.00033 10.1788L6.6433 12.5358L5.46479 11.3573L7.82183 9.00033L5.46479 6.6433L6.6433 5.46479L9.00033 7.82183Z" fill="#EF4444"/>
</svg>
