<svg width="20" height="20" viewBox="0 0 20 20" fill="none" xmlns="http://www.w3.org/2000/svg">
<path d="M9.99984 9.16602C12.301 9.16602 14.1665 11.0315 14.1665 13.3327V18.3327H12.4998V13.3327C12.4998 12.0013 11.4591 10.9129 10.1468 10.8369L9.99984 10.8327C8.66842 10.8327 7.58012 11.8734 7.50408 13.1858L7.49984 13.3327V18.3327H5.83317V13.3327C5.83317 11.0315 7.69865 9.16602 9.99984 9.16602ZM4.58317 11.666C4.81555 11.666 5.04158 11.6932 5.25825 11.7445C5.11819 12.161 5.03211 12.601 5.0073 13.0571L4.99984 13.3327L5.00042 13.404C4.90615 13.3707 4.80668 13.3483 4.70355 13.3384L4.58317 13.3327C3.93342 13.3327 3.39946 13.8284 3.3389 14.4623L3.33317 14.5827V18.3327H1.6665V14.5827C1.6665 12.9718 2.97234 11.666 4.58317 11.666ZM15.4165 11.666C17.0273 11.666 18.3332 12.9718 18.3332 14.5827V18.3327H16.6665V14.5827C16.6665 13.9329 16.1708 13.399 15.5369 13.3384L15.4165 13.3327C15.2705 13.3327 15.1303 13.3577 15.0001 13.4037L14.9998 13.3327C14.9998 12.7779 14.9095 12.2443 14.7428 11.7457C14.9581 11.6932 15.1841 11.666 15.4165 11.666ZM4.58317 6.66602C5.73376 6.66602 6.6665 7.59876 6.6665 8.74935C6.6665 9.89993 5.73376 10.8327 4.58317 10.8327C3.43258 10.8327 2.49984 9.89993 2.49984 8.74935C2.49984 7.59876 3.43258 6.66602 4.58317 6.66602ZM15.4165 6.66602C16.5671 6.66602 17.4998 7.59876 17.4998 8.74935C17.4998 9.89993 16.5671 10.8327 15.4165 10.8327C14.2659 10.8327 13.3332 9.89993 13.3332 8.74935C13.3332 7.59876 14.2659 6.66602 15.4165 6.66602ZM4.58317 8.33268C4.35305 8.33268 4.1665 8.51927 4.1665 8.74935C4.1665 8.97943 4.35305 9.16602 4.58317 9.16602C4.81329 9.16602 4.99984 8.97943 4.99984 8.74935C4.99984 8.51927 4.81329 8.33268 4.58317 8.33268ZM15.4165 8.33268C15.1864 8.33268 14.9998 8.51927 14.9998 8.74935C14.9998 8.97943 15.1864 9.16602 15.4165 9.16602C15.6466 9.16602 15.8332 8.97943 15.8332 8.74935C15.8332 8.51927 15.6466 8.33268 15.4165 8.33268ZM9.99984 1.66602C11.8408 1.66602 13.3332 3.1584 13.3332 4.99935C13.3332 6.8403 11.8408 8.33268 9.99984 8.33268C8.15889 8.33268 6.6665 6.8403 6.6665 4.99935C6.6665 3.1584 8.15889 1.66602 9.99984 1.66602ZM9.99984 3.33268C9.07934 3.33268 8.33317 4.07887 8.33317 4.99935C8.33317 5.91982 9.07934 6.66602 9.99984 6.66602C10.9203 6.66602 11.6665 5.91982 11.6665 4.99935C11.6665 4.07887 10.9203 3.33268 9.99984 3.33268Z" fill="#52525B"/>
</svg>
