<svg width="18" height="16" viewBox="0 0 18 16" fill="none" xmlns="http://www.w3.org/2000/svg">
<path d="M16.5003 0.5C16.9606 0.5 17.3337 0.8731 17.3337 1.33333V14.6667C17.3337 15.1269 16.9606 15.5 16.5003 15.5H1.50033C1.04009 15.5 0.666992 15.1269 0.666992 14.6667V1.33333C0.666992 0.8731 1.04009 0.5 1.50033 0.5H16.5003ZM5.18036 9.66667H2.33366V13.8333H15.667V9.66667H12.8203C12.1773 11.1382 10.7089 12.1667 9.00033 12.1667C7.29173 12.1667 5.82333 11.1382 5.18036 9.66667ZM15.667 2.16667H2.33366V8H6.50033C6.50033 9.38075 7.61958 10.5 9.00033 10.5C10.3811 10.5 11.5003 9.38075 11.5003 8H15.667V2.16667Z" fill="#7C3AED"/>
</svg>
