<svg width="18" height="18" viewBox="0 0 18 18" fill="none" xmlns="http://www.w3.org/2000/svg">
<path d="M9.00425 17.3365C4.40187 17.3365 0.670898 13.6056 0.670898 9.00321C0.670898 4.40088 4.40187 0.669922 9.00425 0.669922C13.6066 0.669922 17.3376 4.40088 17.3376 9.00321C17.3376 13.6056 13.6066 17.3365 9.00425 17.3365ZM9.00425 15.6699C12.6862 15.6699 15.6709 12.6851 15.6709 9.00321C15.6709 5.32135 12.6862 2.33659 9.00425 2.33659C5.32233 2.33659 2.33757 5.32135 2.33757 9.00321C2.33757 12.6851 5.32233 15.6699 9.00425 15.6699ZM6.08757 10.6699H10.6709C10.901 10.6699 11.0876 10.4834 11.0876 10.2532C11.0876 10.0231 10.901 9.83655 10.6709 9.83655H7.33758C6.18697 9.83655 5.25423 8.90388 5.25423 7.75321C5.25423 6.60265 6.18697 5.66992 7.33758 5.66992H8.17092V4.00325H9.83758V5.66992H11.9209V7.33655H7.33758C7.10745 7.33655 6.9209 7.52313 6.9209 7.75321C6.9209 7.98338 7.10745 8.16988 7.33758 8.16988H10.6709C11.8215 8.16988 12.7542 9.10263 12.7542 10.2532C12.7542 11.4039 11.8215 12.3365 10.6709 12.3365H9.83758V14.0032H8.17092V12.3365H6.08757V10.6699Z" fill="white"/>
</svg>
