<svg width="20" height="21" viewBox="0 0 20 21" fill="none" xmlns="http://www.w3.org/2000/svg">
<path d="M5.8243 12.0646L5.30218 14.0138L3.39381 14.0542C2.82349 12.9964 2.5 11.7861 2.5 10.4999C2.5 9.25627 2.80246 8.08346 3.33859 7.05078H3.339L5.03798 7.36226L5.78223 9.05105C5.62646 9.50517 5.54156 9.99267 5.54156 10.4999C5.54162 11.0505 5.64134 11.578 5.8243 12.0646Z" fill="#FACC15"/>
<path d="M17.3691 9.09863C17.4552 9.55232 17.5001 10.0209 17.5001 10.4997C17.5001 11.0367 17.4437 11.5604 17.3361 12.0657C16.971 13.7849 16.017 15.2861 14.6955 16.3485L14.6951 16.3481L12.5551 16.2389L12.2523 14.3482C13.1292 13.8339 13.8145 13.0291 14.1755 12.0657H10.165V9.09863H14.234H17.3691Z" fill="#518EF8"/>
<path d="M14.6946 16.3481L14.695 16.3485C13.4097 17.3816 11.777 17.9997 9.99971 17.9997C7.14354 17.9997 4.66032 16.4033 3.39355 14.054L5.82404 12.0645C6.45741 13.7548 8.08804 14.9581 9.99971 14.9581C10.8214 14.9581 11.5912 14.736 12.2517 14.3482L14.6946 16.3481Z" fill="#28B446"/>
<path d="M14.787 4.72663L12.3573 6.71577C11.6737 6.28844 10.8655 6.04159 9.99976 6.04159C8.04481 6.04159 6.38369 7.30009 5.78205 9.05107L3.33879 7.0508H3.33838C4.5866 4.64422 7.10114 3 9.99976 3C11.8195 3 13.4881 3.64822 14.787 4.72663Z" fill="#F14336"/>
</svg>
