<svg width="302" height="238" viewBox="0 0 302 238" fill="none" xmlns="http://www.w3.org/2000/svg">
<g clip-path="url(#clip0_4197_60748)">
<g clip-path="url(#clip1_4197_60748)">
<g opacity="0.5">
<path d="M292.298 10.1739L284.487 10.4256L284.217 2.04263L292.028 1.79102L292.298 10.1739Z" fill="#0D0D80"/>
</g>
<path d="M190.703 10.9696L183.288 11.9694L182.123 3.32794L189.538 2.32812L190.703 10.9696Z" fill="#FF9500"/>
<path d="M230.835 9.96691L226.93 10.0927L226.66 1.70979L230.565 1.58398L230.835 9.96691Z" fill="#2AAC7E"/>
<path d="M245.464 158.925C243.631 158.184 242.901 155.705 243.836 153.393C244.77 151.081 247.018 149.806 248.851 150.547C250.684 151.288 251.414 153.767 250.479 156.079C249.545 158.391 247.298 159.666 245.464 158.925Z" fill="#FF9500"/>
<path d="M197.035 7.37593C201.084 15.6976 214.495 18.4906 217.311 27.541C220.301 37.1503 209.451 47.7275 212.441 57.3368C212.489 57.4902 212.539 57.6413 212.593 57.7915" stroke="#FF9500" stroke-width="1.77186" stroke-linecap="round" stroke-linejoin="round"/>
<path d="M245.136 6.01698C244.772 8.73172 244.862 11.366 245.922 13.8298C249.9 23.0739 265.02 24.0537 268.998 33.2979C270.713 37.2828 269.993 41.7099 268.895 46.2051" stroke="#2AAC7E" stroke-width="1.56702" stroke-linecap="round" stroke-linejoin="round"/>
<path d="M154.824 18.4548L159.463 11.0386L165.783 14.992L161.144 22.4082L154.824 18.4548Z" fill="#2AAC7E"/>
<path d="M208.921 17.1761L207.472 21.1116L200.138 18.4121L201.587 14.4766L208.921 17.1761Z" fill="#FF9500"/>
<path d="M191.936 83.7896C189.736 83.2359 188.385 81.0524 188.923 78.9169C189.46 76.7815 191.683 75.4973 193.884 76.051C196.084 76.6048 197.434 78.7882 196.897 80.9237C196.359 83.0591 194.136 84.3434 191.936 83.7896Z" fill="#FF9500"/>
<path d="M212.244 41.1308C214.995 42.6624 217.369 44.5231 218.786 47.2167C223.47 56.1237 214.721 68.4945 219.405 77.4015C221.325 81.0535 224.942 83.2444 228.891 85.1483" stroke="#2AAC7E" stroke-width="1.57804" stroke-linecap="round" stroke-linejoin="round"/>
<path d="M209.878 5.57371C207.206 11.1812 203.82 16.7768 205.055 22.4531C207.196 32.2864 221.852 36.1333 223.993 45.9666C224.51 48.342 224.25 50.7077 223.581 53.0683" stroke="#0D0D80" stroke-width="1.65795" stroke-linecap="round" stroke-linejoin="round"/>
<g opacity="0.5">
<path d="M125.743 21.687L118.131 19.9175L120.031 11.748L127.643 13.5176L125.743 21.687Z" fill="#0D0D80"/>
</g>
<path d="M66.4046 5.64991L62.5986 4.76513L64.4977 -3.40431L68.3037 -2.51953L66.4046 5.64991Z" fill="#2AAC7E"/>
<path d="M34.4216 -5.56399C36.1896 3.52004 48.4285 9.6744 48.8171 19.1448C49.2298 29.2 36.0212 36.6243 36.4339 46.6795C36.4405 46.8401 36.4504 46.9991 36.4636 47.158" stroke="#FF9500" stroke-width="1.77186" stroke-linecap="round" stroke-linejoin="round"/>
<path d="M81.2463 5.52739C80.1956 8.0568 79.6037 10.6253 79.9932 13.279C81.4547 23.236 95.8121 28.0789 97.2735 38.0358C97.9035 42.328 96.0668 46.42 93.8482 50.4807" stroke="#2AAC7E" stroke-width="1.56702" stroke-linecap="round" stroke-linejoin="round"/>
<path d="M43.3839 6.9747L40.9701 10.404L34.5794 5.9059L36.9932 2.47656L43.3839 6.9747Z" fill="#FF9500"/>
<path d="M9.80278 66.9583C7.81941 65.8563 7.07744 63.3986 8.14697 61.4738C9.2165 59.5489 11.6952 58.8808 13.6786 59.9828C15.662 61.0849 16.4039 63.5425 15.3344 65.4674C14.2649 67.3922 11.7861 68.0603 9.80278 66.9583Z" fill="#FF9500"/>
<path d="M40.4125 30.9729C42.6762 33.1618 44.4903 35.5713 45.1649 38.5389C47.3959 48.3521 35.7544 58.0507 37.9853 67.8639C38.9001 71.8875 41.8301 74.9363 45.1555 77.7936" stroke="#2AAC7E" stroke-width="1.57804" stroke-linecap="round" stroke-linejoin="round"/>
<path d="M47.2959 -3.99427C43.2688 0.735254 38.5553 5.26945 38.2867 11.0724C37.8214 21.1253 50.991 28.6187 50.5257 38.6716C50.4133 41.1 49.5523 43.3188 48.2977 45.4274" stroke="#0D0D80" stroke-width="1.65795" stroke-linecap="round" stroke-linejoin="round"/>
<path d="M248.355 88.4413L253.461 97.7188L247.85 100.807L242.744 91.5293L248.355 88.4413Z" fill="#FF9500"/>
<g opacity="0.5">
<path d="M122.839 68.7519L127.584 71.1007L123.75 78.8469L119.005 76.498L122.839 68.7519Z" fill="#FF9500"/>
</g>
<path d="M169.048 88.8093L170.621 91.5782L161.412 96.8079L159.84 94.0391L169.048 88.8093Z" fill="#2AAC7E"/>
<path d="M80.0731 61.1393C80.8885 58.9838 83.7697 58.0731 86.5029 59.107C89.2361 60.1409 90.7933 62.7305 89.9779 64.886C89.1625 67.0415 86.2813 67.9522 83.5481 66.9183C80.8149 65.8844 79.2577 63.2948 80.0731 61.1393Z" fill="#FF9500"/>
<g opacity="0.5">
<path d="M86.4097 23.0729L87.737 14.8761L98.1906 16.5688L96.8633 24.7656L86.4097 23.0729Z" fill="#0D0D80"/>
</g>
<g opacity="0.5">
<path d="M113.418 25.7657L114.129 21.6988L124.561 23.523L123.85 27.5898L113.418 25.7657Z" fill="#0D0D80"/>
</g>
<path d="M168.284 -1.55823L171.306 -4.76899L179.018 2.48846L175.996 5.69922L168.284 -1.55823Z" fill="#FF9500"/>
<g opacity="0.5">
<path d="M184.905 162.356C181.994 162.106 179.749 160.519 179.895 158.814C180.041 157.109 182.524 155.927 185.436 156.177C188.347 156.427 190.592 158.014 190.446 159.719C190.3 161.424 187.817 162.606 184.905 162.356Z" fill="#0D0D80"/>
</g>
<path d="M171.438 61.1152C168.747 59.9764 167.226 57.4824 168.044 55.5497C168.862 53.6169 171.711 52.9723 174.402 54.1112C177.093 55.25 178.614 57.7439 177.796 59.6767C176.979 61.6095 174.129 62.2541 171.438 61.1152Z" fill="#FF9500"/>
<path d="M70.0047 91.7558L71.6613 102.215L77.9867 101.213L76.3301 90.7539L70.0047 91.7558Z" fill="#FF9500"/>
<g opacity="0.5">
<path d="M157.073 -0.772861L154.765 3.99265L162.544 7.75965L164.852 2.99414L157.073 -0.772861Z" fill="#FF9500"/>
</g>
<path d="M132.877 43.4071L133.333 46.5586L143.813 45.042L143.357 41.8906L132.877 43.4071Z" fill="#2AAC7E"/>
<g opacity="0.5">
<path d="M201.205 59.6653C200.201 57.8778 197.317 57.5887 194.769 59.0203C192.222 60.4519 190.969 63.0656 191.973 64.8531C192.978 66.6407 195.862 66.9298 198.409 65.4982C200.957 64.0666 202.21 61.4529 201.205 59.6653Z" fill="#FF3B30"/>
</g>
<path d="M114.012 23.0046C115.439 20.4546 115.111 17.552 113.28 16.527C111.448 15.502 108.802 16.7401 107.375 19.2901C105.948 21.8401 106.276 24.7427 108.107 25.7678C109.939 26.7928 112.585 25.5546 114.012 23.0046Z" fill="#FF9500"/>
</g>
</g>
<path d="M181.224 88.8279L181.226 88.8242L181.152 88.7868L181.144 88.7826L163.346 78.5366L163.328 78.5278L163.225 78.4745L163.223 78.4792C154.908 74.2844 143.814 75.5428 131.881 83.2586C107.908 98.7602 89.6409 134.441 91.0795 162.953C91.7966 177.165 97.2759 186.91 105.559 191.194L105.557 191.196L105.63 191.234L105.64 191.239L123.442 201.487L123.449 201.491L123.537 201.536L123.539 201.532C131.856 205.739 142.959 204.485 154.902 196.763C178.874 181.26 197.142 145.581 195.704 117.068C194.986 102.857 189.507 93.1114 181.224 88.8279Z" fill="#4ADE80"/>
<path d="M122.836 201.162L105.645 191.236L105.632 191.237L105.552 191.189C97.273 186.895 91.7961 177.149 91.0803 162.957C90.4388 150.241 93.724 136.107 99.6692 122.981L99.7892 122.693L117.474 133.226C111.516 146.352 108.243 160.486 108.885 173.202C109.587 187.109 114.85 196.735 122.836 201.162Z" fill="#22C55E"/>
<path d="M154.902 196.762C178.874 181.26 197.142 145.58 195.703 117.068C194.264 88.5555 173.665 78.0084 149.692 93.5109C125.719 109.013 107.451 144.693 108.89 173.205C110.329 201.717 130.929 212.264 154.902 196.762Z" fill="#86EFAC"/>
<path d="M156.554 180.533C156.384 180.533 156.213 180.529 156.043 180.52C154.566 180.439 153.158 180.016 151.912 179.293C151.122 178.835 146.293 176.035 145.181 175.402C144.625 175.085 144.101 174.71 143.618 174.278C144.101 174.708 144.626 175.084 145.18 175.4C146.294 176.035 151.124 178.835 151.911 179.292C151.12 178.831 150.398 178.253 149.763 177.565L132.727 159.112C131.949 158.269 131.358 157.312 130.958 156.304L124.183 152.395C124.512 153.209 124.957 153.993 125.527 154.71C124.175 153.024 123.506 150.981 123.505 148.943C123.504 146.455 124.499 143.975 126.464 142.159C128.244 140.522 130.493 139.715 132.734 139.715C134.334 139.715 135.931 140.128 137.347 140.945C138.131 141.398 142.977 144.204 144.118 144.858C144.906 145.309 145.638 145.886 146.285 146.588L148.457 148.943L186.691 70.1921C188.279 66.9115 191.575 65 195.006 65C196.357 65 197.73 65.297 199.026 65.9236C199.224 66.0193 199.417 66.1215 199.604 66.2294C200.812 66.9246 206.202 70.0389 206.391 70.1477C209.313 71.8314 210.999 74.9332 211 78.1516C211 79.5043 210.703 80.8775 210.075 82.175L164.843 175.339C163.518 178.08 160.915 179.988 157.89 180.438C157.438 180.502 156.995 180.533 156.554 180.533ZM188.836 67.3532C187.966 68.1274 187.227 69.0799 186.692 70.193L148.459 148.942L154.147 155.108L193.471 74.1063C194.01 72.9973 194.74 72.0406 195.61 71.2669L188.836 67.3532Z" fill="#4ADE80"/>
<path d="M151.912 179.293C151.125 178.836 146.294 176.036 145.181 175.401C144.626 175.085 144.102 174.709 143.618 174.279C143.397 174.082 143.185 173.873 142.982 173.654L125.946 155.198C125.8 155.039 125.66 154.877 125.527 154.711C124.957 153.994 124.512 153.21 124.184 152.395L130.958 156.304C131.358 157.313 131.949 158.27 132.728 159.113L149.764 177.566C150.399 178.254 151.12 178.832 151.912 179.293Z" fill="#22C55E"/>
<path d="M154.147 155.107L148.459 148.942L186.692 70.1927C187.227 69.0796 187.966 68.127 188.836 67.3529L195.61 71.2666C194.74 72.0403 194.01 72.997 193.471 74.1059L154.147 155.107Z" fill="#22C55E"/>
<path d="M205.807 69.8384C201.22 67.621 195.685 69.5335 193.471 74.1069L154.146 155.107L146.285 146.588C142.851 142.858 137.001 142.62 133.245 146.074C129.512 149.523 129.28 155.373 132.727 159.112L149.763 177.567C151.399 179.34 153.63 180.389 156.042 180.519C156.652 180.552 157.262 180.527 157.89 180.438C160.915 179.988 163.518 178.08 164.843 175.339L210.075 82.1748C212.295 77.5901 210.382 72.0572 205.807 69.8384Z" fill="#BBF7D0"/>
<defs>
<clipPath id="clip0_4197_60748">
<rect width="301.69" height="291.166" fill="white" transform="translate(0.155273 -54)"/>
</clipPath>
<clipPath id="clip1_4197_60748">
<rect width="403.072" height="537.429" fill="white" transform="translate(-64.0947 -245)"/>
</clipPath>
</defs>
</svg>
