<svg width="186" height="160" viewBox="0 0 186 160" fill="none" xmlns="http://www.w3.org/2000/svg">
<g clip-path="url(#clip0_4174_15126)">
<path d="M157.477 50.2456C137.32 47.4586 122.548 58.7799 122.548 58.7799C138.53 65.1819 157.477 50.2456 157.477 50.2456Z" fill="#C4B5FD"/>
<path d="M100.954 53.2976C101.842 65.7539 110.825 73.7734 110.825 73.7734C112.733 63.5431 100.954 53.2976 100.954 53.2976Z" fill="#C4B5FD"/>
<path d="M115.46 72.1189C130.348 73.9421 141.872 65.2814 141.872 65.2814C130.257 60.6954 115.46 72.1189 115.46 72.1189Z" fill="#C4B5FD"/>
<path d="M129.856 45.1906C129.617 45.0476 123.845 54.2379 116.965 65.7152C110.084 77.1969 104.7 86.6171 104.939 86.7601C105.177 86.9034 110.948 77.7149 117.83 66.2336C124.71 54.7564 130.094 45.3339 129.856 45.1906Z" fill="#C4B5FD"/>
<path d="M149.998 19.9425C149.998 19.9425 128.717 29.2126 127.408 49.9102C127.408 49.9102 145.674 42.2513 149.998 19.9425Z" fill="#C4B5FD"/>
<path d="M117.303 24.6839C117.303 24.6839 105.742 44.812 117.029 62.2109C117.029 62.2109 127.129 45.1727 117.303 24.6839Z" fill="#C4B5FD"/>
<path d="M26.7437 64.2184C43.3919 60.2705 56.6633 68.5629 56.6633 68.5629C43.7992 75.2019 26.7437 64.2184 26.7437 64.2184Z" fill="#C4B5FD"/>
<path d="M74.2983 62.2503C74.5532 72.7476 67.6767 80.1797 67.6767 80.1797C65.2603 71.7699 74.2983 62.2503 74.2983 62.2503Z" fill="#C4B5FD"/>
<path d="M63.665 79.1611C51.3499 81.8796 41.0103 75.5542 41.0103 75.5542C50.365 70.785 63.665 79.1611 63.665 79.1611Z" fill="#C4B5FD"/>
<path d="M49.4585 57.7794C49.6471 57.64 55.2144 64.87 61.8924 73.9251C68.5726 82.9836 73.8334 90.4373 73.6448 90.5762C73.4566 90.7151 67.8902 83.4868 61.21 74.4282C54.5324 65.3732 49.2703 57.9178 49.4585 57.7794Z" fill="#C4B5FD"/>
<path d="M30.5762 38.2586C30.5762 38.2586 49.1309 44.312 51.8852 61.5312C51.8852 61.5312 35.9824 56.5841 30.5762 38.2586Z" fill="#C4B5FD"/>
<path d="M58.3225 39.6119C58.3225 39.6119 69.6116 55.5327 61.5589 71C61.5589 71 51.7391 57.5486 58.3225 39.6119Z" fill="#C4B5FD"/>
<path d="M176.21 64.0155L179.005 65.0662L176.578 65.7549C175.768 65.9843 175.125 66.6018 174.864 67.402L173.986 70.0859L172.906 67.394C172.638 66.7259 172.098 66.2034 171.421 65.9579L168.966 65.0662L171.625 63.9738C172.269 63.7095 172.775 63.192 173.025 62.5427L173.986 60.047L174.675 62.3675C174.9 63.127 175.468 63.7368 176.21 64.0155Z" fill="#C4B5FD"/>
<path d="M125.282 4.68694L128.078 5.73811L125.651 6.42633C124.841 6.65619 124.198 7.27363 123.936 8.07343L123.058 10.7578L121.978 8.06582C121.71 7.3973 121.171 6.8753 120.494 6.62931L118.039 5.73811L120.698 4.64571C121.341 4.38135 121.848 3.86339 122.098 3.21414L123.058 0.718389L123.747 3.03893C123.973 3.79841 124.541 4.40824 125.282 4.68694Z" fill="#C4B5FD"/>
<path d="M37.0072 23.5389L39.8027 24.5897L37.3755 25.2783C36.5654 25.5078 35.9229 26.1252 35.6612 26.9254L34.783 29.6094L33.7031 26.9174C33.4352 26.2493 32.8948 25.7269 32.2182 25.4813L29.7632 24.5897L32.4221 23.4973C33.066 23.2329 33.5719 22.7154 33.8219 22.0661L34.783 19.5704L35.4721 21.891C35.6975 22.6504 36.2656 23.2602 37.0072 23.5389Z" fill="#C4B5FD"/>
<path d="M184.128 52.456L185.541 52.9869L184.314 53.3346C183.905 53.4507 183.581 53.763 183.448 54.1671L183.004 55.5234L182.459 54.1631C182.323 53.8257 182.05 53.5613 181.708 53.4372L180.468 52.9869L181.812 52.4349C182.137 52.3014 182.392 52.0397 182.519 51.7117L183.004 50.4504L183.352 51.623C183.467 52.0066 183.753 52.3148 184.128 52.456Z" fill="#C4B5FD"/>
<path d="M17.6801 69.12L19.0927 69.651L17.8661 69.9987C17.4569 70.1147 17.132 70.4266 16.9999 70.8312L16.556 72.1875L16.0103 70.8272C15.875 70.4893 15.6022 70.2254 15.2601 70.1013L14.0195 69.651L15.3632 69.099C15.6885 68.965 15.9442 68.7038 16.0705 68.3753L16.556 67.1145L16.9043 68.2871C17.0183 68.6706 17.3053 68.9789 17.6801 69.12Z" fill="#C4B5FD"/>
<path d="M12.9971 41.2528L14.4096 41.7838L13.1831 42.1315C12.7738 42.2476 12.4491 42.5599 12.3167 42.964L11.8731 44.3203L11.3273 42.96C11.1919 42.6226 10.919 42.3582 10.577 42.2341L9.33643 41.7838L10.6801 41.2318C11.0055 41.0983 11.2612 40.8366 11.3874 40.5082L11.8731 39.2473L12.2212 40.4199C12.3353 40.8034 12.6224 41.1117 12.9971 41.2528Z" fill="#C4B5FD"/>
<path d="M158.094 19.4091L159.507 19.9401L158.28 20.2882C157.871 20.4042 157.546 20.7161 157.414 21.1203L156.97 22.4766L156.424 21.1162C156.289 20.7788 156.016 20.5149 155.674 20.3908L154.434 19.9401L155.777 19.388C156.103 19.2545 156.358 18.9928 156.484 18.6648L156.97 17.4035L157.318 18.5766C157.433 18.9601 157.719 19.2684 158.094 19.4091Z" fill="#C4B5FD"/>
<path d="M75.3004 57.2641L76.7131 57.7955L75.4868 58.1432C75.0772 58.2593 74.7524 58.5711 74.6202 58.9757L74.1766 60.332L73.6309 58.9717C73.4951 58.6338 73.2222 58.3699 72.8804 58.2458L71.6396 57.7955L72.9834 57.2431C73.3087 57.1095 73.5645 56.8479 73.6909 56.5199L74.1766 55.2586L74.5248 56.4316C74.6386 56.8151 74.9258 57.1234 75.3004 57.2641Z" fill="#C4B5FD"/>
<path d="M123.076 67.7734L116.494 67.6805L116.745 49.7618C116.745 36.5929 105.994 25.8412 92.7793 25.8412C79.5636 25.8412 68.8128 36.5929 68.8128 49.8079L68.5619 67.7734L61.98 67.6805L62.2309 49.7618C62.2309 32.9637 75.9345 19.2592 92.7793 19.2592C109.623 19.2592 123.327 32.9637 123.327 49.8079L123.076 67.7734Z" fill="#09090B"/>
<path d="M123.685 148.148H62.5673C54.2592 148.148 47.5234 141.413 47.5234 133.104V74.0828C47.5234 65.7739 54.2592 59.038 62.5673 59.038H123.685C131.993 59.038 138.729 65.7739 138.729 74.0828V133.104C138.729 141.413 131.993 148.148 123.685 148.148Z" fill="#DDD6FE"/>
<path d="M100.925 117.387H86.0116L88.3399 106.617C85.7582 105.013 84.0337 102.159 84.0337 98.8962C84.0337 93.875 88.1038 89.804 93.1258 89.804C98.147 89.804 102.218 93.875 102.218 98.8962C102.218 102.042 100.62 104.813 98.1939 106.446C99.2478 110.62 100.925 117.387 100.925 117.387Z" fill="#A78BFA"/>
</g>
<defs>
<clipPath id="clip0_4174_15126">
<rect width="185.185" height="160" fill="white" transform="translate(0.407227)"/>
</clipPath>
</defs>
</svg>
