<svg width="68" height="69" viewBox="0 0 68 69" fill="none" xmlns="http://www.w3.org/2000/svg">
<g filter="url(#filter0_dd_4116_5219)">
<g clip-path="url(#clip0_4116_5219)">
<rect x="6" y="4" width="56" height="56" rx="28" fill="white"/>
<rect x="6" y="4" width="56" height="56" rx="28" fill="url(#paint0_linear_4116_5219)" fill-opacity="0.1"/>
<g opacity="0.1">
<circle opacity="0.87" cx="6.7" cy="8.89922" r="0.7" fill="#FAFAFA"/>
<circle opacity="0.44" cx="10.9002" cy="8.89922" r="0.7" fill="#FAFAFA"/>
<circle opacity="0.69" cx="15.1004" cy="8.89922" r="0.7" fill="#FAFAFA"/>
<circle opacity="0.73" cx="19.2996" cy="8.89922" r="0.7" fill="#FAFAFA"/>
<circle opacity="0.66" cx="23.4998" cy="8.89922" r="0.7" fill="#FAFAFA"/>
<circle opacity="0.39" cx="27.7" cy="8.89922" r="0.7" fill="#FAFAFA"/>
<circle opacity="0.77" cx="31.9002" cy="8.89922" r="0.7" fill="#FAFAFA"/>
<circle opacity="0.78" cx="36.1004" cy="8.89922" r="0.7" fill="#FAFAFA"/>
<circle opacity="0.78" cx="61.2996" cy="8.89922" r="0.7" fill="#FAFAFA"/>
<circle opacity="0.37" cx="40.2996" cy="8.89922" r="0.7" fill="#FAFAFA"/>
<circle opacity="0.52" cx="44.4998" cy="8.89922" r="0.7" fill="#FAFAFA"/>
<circle opacity="0.56" cx="48.7" cy="8.89922" r="0.7" fill="#FAFAFA"/>
<circle opacity="0.51" cx="52.9002" cy="8.89922" r="0.7" fill="#FAFAFA"/>
<circle opacity="0.78" cx="57.1004" cy="8.89922" r="0.7" fill="#FAFAFA"/>
<circle opacity="0.72" cx="6.7" cy="13.1004" r="0.7" fill="#FAFAFA"/>
<circle opacity="0.85" cx="10.9002" cy="13.1004" r="0.7" fill="#FAFAFA"/>
<circle opacity="0.79" cx="15.1004" cy="13.1004" r="0.7" fill="#FAFAFA"/>
<circle opacity="0.52" cx="19.2996" cy="13.1004" r="0.7" fill="#FAFAFA"/>
<circle opacity="0.74" cx="23.4998" cy="13.1004" r="0.7" fill="#FAFAFA"/>
<circle opacity="0.53" cx="27.7" cy="13.1004" r="0.7" fill="#FAFAFA"/>
<circle opacity="0.51" cx="36.1004" cy="13.1004" r="0.7" fill="#FAFAFA"/>
<circle opacity="0.23" cx="31.9002" cy="13.1004" r="0.7" fill="#FAFAFA"/>
<circle opacity="0.51" cx="61.2996" cy="13.1004" r="0.7" fill="#FAFAFA"/>
<circle opacity="0.27" cx="40.2996" cy="13.1004" r="0.7" fill="#FAFAFA"/>
<circle opacity="0.87" cx="44.4998" cy="13.1004" r="0.7" fill="#FAFAFA"/>
<circle opacity="0.51" cx="48.7" cy="13.1004" r="0.7" fill="#FAFAFA"/>
<circle opacity="0.2" cx="52.9002" cy="13.1004" r="0.7" fill="#FAFAFA"/>
<circle opacity="0.74" cx="57.1004" cy="13.1004" r="0.7" fill="#FAFAFA"/>
<circle opacity="0.42" cx="6.7" cy="17.2996" r="0.7" fill="#FAFAFA"/>
<circle opacity="0.88" cx="10.9002" cy="17.2996" r="0.7" fill="#FAFAFA"/>
<circle opacity="0.58" cx="15.1004" cy="17.2996" r="0.7" fill="#FAFAFA"/>
<circle opacity="0.36" cx="19.2996" cy="17.2996" r="0.7" fill="#FAFAFA"/>
<circle opacity="0.49" cx="23.4998" cy="17.2996" r="0.7" fill="#FAFAFA"/>
<circle opacity="0.8" cx="36.1004" cy="17.2996" r="0.7" fill="#FAFAFA"/>
<circle opacity="0.88" cx="27.7" cy="17.2996" r="0.7" fill="#FAFAFA"/>
<circle opacity="0.55" cx="31.9002" cy="17.2996" r="0.7" fill="#FAFAFA"/>
<circle opacity="0.8" cx="61.2996" cy="17.2996" r="0.7" fill="#FAFAFA"/>
<circle opacity="0.75" cx="40.2996" cy="17.2996" r="0.7" fill="#FAFAFA"/>
<circle opacity="0.87" cx="44.4998" cy="17.2996" r="0.7" fill="#FAFAFA"/>
<circle opacity="0.33" cx="48.7" cy="17.2996" r="0.7" fill="#FAFAFA"/>
<circle opacity="0.84" cx="52.9002" cy="17.2996" r="0.7" fill="#FAFAFA"/>
<circle opacity="0.83" cx="57.1004" cy="17.2996" r="0.7" fill="#FAFAFA"/>
<circle opacity="0.42" cx="6.7" cy="4.7" r="0.7" fill="#FAFAFA"/>
<circle opacity="0.88" cx="10.9002" cy="4.7" r="0.7" fill="#FAFAFA"/>
<circle opacity="0.58" cx="15.1004" cy="4.7" r="0.7" fill="#FAFAFA"/>
<circle opacity="0.36" cx="19.2996" cy="4.7" r="0.7" fill="#FAFAFA"/>
<circle opacity="0.8" cx="36.1004" cy="4.7" r="0.7" fill="#FAFAFA"/>
<circle opacity="0.49" cx="23.4998" cy="4.7" r="0.7" fill="#FAFAFA"/>
<circle opacity="0.88" cx="27.7" cy="4.7" r="0.7" fill="#FAFAFA"/>
<circle opacity="0.55" cx="31.9002" cy="4.7" r="0.7" fill="#FAFAFA"/>
<circle opacity="0.8" cx="61.2996" cy="4.7" r="0.7" fill="#FAFAFA"/>
<circle opacity="0.75" cx="40.2996" cy="4.7" r="0.7" fill="#FAFAFA"/>
<circle opacity="0.87" cx="44.4998" cy="4.7" r="0.7" fill="#FAFAFA"/>
<circle opacity="0.33" cx="48.7" cy="4.7" r="0.7" fill="#FAFAFA"/>
<circle opacity="0.84" cx="52.9002" cy="4.7" r="0.7" fill="#FAFAFA"/>
<circle opacity="0.83" cx="57.1004" cy="4.7" r="0.7" fill="#FAFAFA"/>
<circle opacity="0.62" cx="6.7" cy="21.5008" r="0.7" fill="#FAFAFA"/>
<circle opacity="0.62" cx="10.9002" cy="21.5008" r="0.7" fill="#FAFAFA"/>
<circle opacity="0.35" cx="15.1004" cy="21.5008" r="0.7" fill="#FAFAFA"/>
<circle opacity="0.65" cx="36.1004" cy="21.5008" r="0.7" fill="#FAFAFA"/>
<circle opacity="0.53" cx="19.2996" cy="21.5008" r="0.7" fill="#FAFAFA"/>
<circle opacity="0.4" cx="23.4998" cy="21.5008" r="0.7" fill="#FAFAFA"/>
<circle opacity="0.67" cx="27.7" cy="21.5008" r="0.7" fill="#FAFAFA"/>
<circle opacity="0.64" cx="31.9002" cy="21.5008" r="0.7" fill="#FAFAFA"/>
<circle opacity="0.65" cx="61.2996" cy="21.5008" r="0.7" fill="#FAFAFA"/>
<circle opacity="0.53" cx="40.2996" cy="21.5008" r="0.7" fill="#FAFAFA"/>
<circle opacity="0.76" cx="44.4998" cy="21.5008" r="0.7" fill="#FAFAFA"/>
<circle opacity="0.54" cx="48.7" cy="21.5008" r="0.7" fill="#FAFAFA"/>
<circle opacity="0.36" cx="52.9002" cy="21.5008" r="0.7" fill="#FAFAFA"/>
<circle opacity="0.27" cx="57.1004" cy="21.5008" r="0.7" fill="#FAFAFA"/>
<circle opacity="0.37" cx="6.7" cy="25.7" r="0.7" fill="#FAFAFA"/>
<circle opacity="0.8" cx="10.9002" cy="25.7" r="0.7" fill="#FAFAFA"/>
<circle opacity="0.79" cx="36.1004" cy="25.7" r="0.7" fill="#FAFAFA"/>
<circle opacity="0.44" cx="15.1004" cy="25.7" r="0.7" fill="#FAFAFA"/>
<circle opacity="0.49" cx="19.2996" cy="25.7" r="0.7" fill="#FAFAFA"/>
<circle opacity="0.37" cx="23.4998" cy="25.7" r="0.7" fill="#FAFAFA"/>
<circle opacity="0.34" cx="27.7" cy="25.7" r="0.7" fill="#FAFAFA"/>
<circle opacity="0.31" cx="31.9002" cy="25.7" r="0.7" fill="#FAFAFA"/>
<circle opacity="0.79" cx="61.2996" cy="25.7" r="0.7" fill="#FAFAFA"/>
<circle opacity="0.7" cx="40.2996" cy="25.7" r="0.7" fill="#FAFAFA"/>
<circle opacity="0.51" cx="44.4998" cy="25.7" r="0.7" fill="#FAFAFA"/>
<circle opacity="0.33" cx="48.7" cy="25.7" r="0.7" fill="#FAFAFA"/>
<circle opacity="0.4" cx="52.9002" cy="25.7" r="0.7" fill="#FAFAFA"/>
<circle opacity="0.59" cx="57.1004" cy="25.7" r="0.7" fill="#FAFAFA"/>
<circle opacity="0.39" cx="6.7" cy="29.8992" r="0.7" fill="#FAFAFA"/>
<circle opacity="0.43" cx="36.1004" cy="29.8992" r="0.7" fill="#FAFAFA"/>
<circle opacity="0.8" cx="10.9002" cy="29.8992" r="0.7" fill="#FAFAFA"/>
<circle opacity="0.49" cx="15.1004" cy="29.8992" r="0.7" fill="#FAFAFA"/>
<circle opacity="0.62" cx="19.2996" cy="29.8992" r="0.7" fill="#FAFAFA"/>
<circle opacity="0.81" cx="23.4998" cy="29.8992" r="0.7" fill="#FAFAFA"/>
<circle opacity="0.8" cx="27.7" cy="29.8992" r="0.7" fill="#FAFAFA"/>
<circle opacity="0.84" cx="31.9002" cy="29.8992" r="0.7" fill="#FAFAFA"/>
<circle opacity="0.43" cx="61.2996" cy="29.8992" r="0.7" fill="#FAFAFA"/>
<circle opacity="0.38" cx="40.2996" cy="29.8992" r="0.7" fill="#FAFAFA"/>
<circle opacity="0.37" cx="44.4998" cy="29.8992" r="0.7" fill="#FAFAFA"/>
<circle opacity="0.76" cx="48.7" cy="29.8992" r="0.7" fill="#FAFAFA"/>
<circle opacity="0.41" cx="52.9002" cy="29.8992" r="0.7" fill="#FAFAFA"/>
<circle opacity="0.48" cx="57.1004" cy="29.8992" r="0.7" fill="#FAFAFA"/>
<circle opacity="0.33" cx="36.1004" cy="34.1004" r="0.7" fill="#FAFAFA"/>
<circle opacity="0.52" cx="6.7" cy="34.1004" r="0.7" fill="#FAFAFA"/>
<circle opacity="0.34" cx="10.9002" cy="34.1004" r="0.7" fill="#FAFAFA"/>
<circle opacity="0.9" cx="15.1004" cy="34.1004" r="0.7" fill="#FAFAFA"/>
<circle opacity="0.48" cx="19.2996" cy="34.1004" r="0.7" fill="#FAFAFA"/>
<circle opacity="0.67" cx="23.4998" cy="34.1004" r="0.7" fill="#FAFAFA"/>
<circle opacity="0.37" cx="27.7" cy="34.1004" r="0.7" fill="#FAFAFA"/>
<circle opacity="0.66" cx="31.9002" cy="34.1004" r="0.7" fill="#FAFAFA"/>
<circle opacity="0.33" cx="61.2996" cy="34.1004" r="0.7" fill="#FAFAFA"/>
<circle opacity="0.88" cx="40.2996" cy="34.1004" r="0.7" fill="#FAFAFA"/>
<circle opacity="0.51" cx="44.4998" cy="34.1004" r="0.7" fill="#FAFAFA"/>
<circle opacity="0.55" cx="48.7" cy="34.1004" r="0.7" fill="#FAFAFA"/>
<circle opacity="0.39" cx="52.9002" cy="34.1004" r="0.7" fill="#FAFAFA"/>
<circle opacity="0.23" cx="36.1004" cy="38.2996" r="0.7" fill="#FAFAFA"/>
<circle opacity="0.59" cx="57.1004" cy="34.1004" r="0.7" fill="#FAFAFA"/>
<circle opacity="0.83" cx="6.7" cy="38.2996" r="0.7" fill="#FAFAFA"/>
<circle opacity="0.57" cx="10.9002" cy="38.2996" r="0.7" fill="#FAFAFA"/>
<circle opacity="0.89" cx="15.1004" cy="38.2996" r="0.7" fill="#FAFAFA"/>
<circle opacity="0.38" cx="19.2996" cy="38.2996" r="0.7" fill="#FAFAFA"/>
<circle opacity="0.25" cx="23.4998" cy="38.2996" r="0.7" fill="#FAFAFA"/>
<circle opacity="0.28" cx="27.7" cy="38.2996" r="0.7" fill="#FAFAFA"/>
<circle opacity="0.45" cx="31.9002" cy="38.2996" r="0.7" fill="#FAFAFA"/>
<circle opacity="0.23" cx="61.2996" cy="38.2996" r="0.7" fill="#FAFAFA"/>
<circle opacity="0.79" cx="40.2996" cy="38.2996" r="0.7" fill="#FAFAFA"/>
<circle opacity="0.77" cx="44.4998" cy="38.2996" r="0.7" fill="#FAFAFA"/>
<circle opacity="0.43" cx="48.7" cy="38.2996" r="0.7" fill="#FAFAFA"/>
<circle opacity="0.66" cx="36.1004" cy="42.5008" r="0.7" fill="#FAFAFA"/>
<circle opacity="0.29" cx="52.9002" cy="38.2996" r="0.7" fill="#FAFAFA"/>
<circle opacity="0.55" cx="57.1004" cy="38.2996" r="0.7" fill="#FAFAFA"/>
<circle opacity="0.62" cx="6.7" cy="42.5008" r="0.7" fill="#FAFAFA"/>
<circle opacity="0.65" cx="10.9002" cy="42.5008" r="0.7" fill="#FAFAFA"/>
<circle opacity="0.41" cx="15.1004" cy="42.5008" r="0.7" fill="#FAFAFA"/>
<circle opacity="0.26" cx="19.2996" cy="42.5008" r="0.7" fill="#FAFAFA"/>
<circle opacity="0.24" cx="23.4998" cy="42.5008" r="0.7" fill="#FAFAFA"/>
<circle opacity="0.68" cx="27.7" cy="42.5008" r="0.7" fill="#FAFAFA"/>
<circle opacity="0.31" cx="31.9002" cy="42.5008" r="0.7" fill="#FAFAFA"/>
<circle opacity="0.66" cx="61.2996" cy="42.5008" r="0.7" fill="#FAFAFA"/>
<circle opacity="0.55" cx="40.2996" cy="42.5008" r="0.7" fill="#FAFAFA"/>
<circle opacity="0.52" cx="44.4998" cy="42.5008" r="0.7" fill="#FAFAFA"/>
<circle opacity="0.68" cx="36.1004" cy="46.7" r="0.7" fill="#FAFAFA"/>
<circle opacity="0.83" cx="48.7" cy="42.5008" r="0.7" fill="#FAFAFA"/>
<circle opacity="0.66" cx="52.9002" cy="42.5008" r="0.7" fill="#FAFAFA"/>
<circle opacity="0.59" cx="57.1004" cy="42.5008" r="0.7" fill="#FAFAFA"/>
<circle opacity="0.34" cx="6.7" cy="46.7" r="0.7" fill="#FAFAFA"/>
<circle opacity="0.43" cx="10.9002" cy="46.7" r="0.7" fill="#FAFAFA"/>
<circle opacity="0.84" cx="15.1004" cy="46.7" r="0.7" fill="#FAFAFA"/>
<circle opacity="0.51" cx="19.2996" cy="46.7" r="0.7" fill="#FAFAFA"/>
<circle opacity="0.77" cx="23.4998" cy="46.7" r="0.7" fill="#FAFAFA"/>
<circle opacity="0.56" cx="27.7" cy="46.7" r="0.7" fill="#FAFAFA"/>
<circle opacity="0.45" cx="31.9002" cy="46.7" r="0.7" fill="#FAFAFA"/>
<circle opacity="0.68" cx="61.2996" cy="46.7" r="0.7" fill="#FAFAFA"/>
<circle opacity="0.36" cx="40.2996" cy="46.7" r="0.7" fill="#FAFAFA"/>
<circle opacity="0.26" cx="36.1004" cy="50.8992" r="0.7" fill="#FAFAFA"/>
<circle opacity="0.28" cx="44.4998" cy="46.7" r="0.7" fill="#FAFAFA"/>
<circle opacity="0.67" cx="48.7" cy="46.7" r="0.7" fill="#FAFAFA"/>
<circle opacity="0.28" cx="52.9002" cy="46.7" r="0.7" fill="#FAFAFA"/>
<circle opacity="0.74" cx="57.1004" cy="46.7" r="0.7" fill="#FAFAFA"/>
<circle opacity="0.72" cx="6.7" cy="50.8992" r="0.7" fill="#FAFAFA"/>
<circle opacity="0.58" cx="10.9002" cy="50.8992" r="0.7" fill="#FAFAFA"/>
<circle opacity="0.62" cx="15.1004" cy="50.8992" r="0.7" fill="#FAFAFA"/>
<circle opacity="0.63" cx="19.2996" cy="50.8992" r="0.7" fill="#FAFAFA"/>
<circle opacity="0.6" cx="23.4998" cy="50.8992" r="0.7" fill="#FAFAFA"/>
<circle opacity="0.49" cx="27.7" cy="50.8992" r="0.7" fill="#FAFAFA"/>
<circle opacity="0.45" cx="31.9002" cy="50.8992" r="0.7" fill="#FAFAFA"/>
<circle opacity="0.26" cx="61.2996" cy="50.8992" r="0.7" fill="#FAFAFA"/>
<circle opacity="0.57" cx="36.1004" cy="55.1004" r="0.7" fill="#FAFAFA"/>
<circle opacity="0.21" cx="40.2996" cy="50.8992" r="0.7" fill="#FAFAFA"/>
<circle opacity="0.67" cx="44.4998" cy="50.8992" r="0.7" fill="#FAFAFA"/>
<circle opacity="0.3" cx="48.7" cy="50.8992" r="0.7" fill="#FAFAFA"/>
<circle opacity="0.28" cx="52.9002" cy="50.8992" r="0.7" fill="#FAFAFA"/>
<circle opacity="0.29" cx="57.1004" cy="50.8992" r="0.7" fill="#FAFAFA"/>
<circle opacity="0.4" cx="6.7" cy="55.1004" r="0.7" fill="#FAFAFA"/>
<circle opacity="0.28" cx="10.9002" cy="55.1004" r="0.7" fill="#FAFAFA"/>
<circle opacity="0.29" cx="15.1004" cy="55.1004" r="0.7" fill="#FAFAFA"/>
<circle opacity="0.41" cx="19.2996" cy="55.1004" r="0.7" fill="#FAFAFA"/>
<circle opacity="0.88" cx="23.4998" cy="55.1004" r="0.7" fill="#FAFAFA"/>
<circle opacity="0.88" cx="27.7" cy="55.1004" r="0.7" fill="#FAFAFA"/>
<circle opacity="0.83" cx="31.9002" cy="55.1004" r="0.7" fill="#FAFAFA"/>
<circle opacity="0.56" cx="36.1004" cy="59.2996" r="0.7" fill="#FAFAFA"/>
<circle opacity="0.57" cx="61.2996" cy="55.1004" r="0.7" fill="#FAFAFA"/>
<circle opacity="0.67" cx="40.2996" cy="55.1004" r="0.7" fill="#FAFAFA"/>
<circle opacity="0.9" cx="44.4998" cy="55.1004" r="0.7" fill="#FAFAFA"/>
<circle opacity="0.47" cx="48.7" cy="55.1004" r="0.7" fill="#FAFAFA"/>
<circle opacity="0.4" cx="52.9002" cy="55.1004" r="0.7" fill="#FAFAFA"/>
<circle opacity="0.58" cx="57.1004" cy="55.1004" r="0.7" fill="#FAFAFA"/>
<circle opacity="0.59" cx="6.7" cy="59.2996" r="0.7" fill="#FAFAFA"/>
<circle opacity="0.66" cx="10.9002" cy="59.2996" r="0.7" fill="#FAFAFA"/>
<circle opacity="0.73" cx="15.1004" cy="59.2996" r="0.7" fill="#FAFAFA"/>
<circle opacity="0.84" cx="19.2996" cy="59.2996" r="0.7" fill="#FAFAFA"/>
<circle opacity="0.62" cx="23.4998" cy="59.2996" r="0.7" fill="#FAFAFA"/>
<circle opacity="0.77" cx="27.7" cy="59.2996" r="0.7" fill="#FAFAFA"/>
<circle opacity="0.41" cx="31.9002" cy="59.2996" r="0.7" fill="#FAFAFA"/>
<circle opacity="0.56" cx="61.2996" cy="59.2996" r="0.7" fill="#FAFAFA"/>
<circle opacity="0.39" cx="40.2996" cy="59.2996" r="0.7" fill="#FAFAFA"/>
<circle opacity="0.5" cx="44.4998" cy="59.2996" r="0.7" fill="#FAFAFA"/>
<circle opacity="0.47" cx="48.7" cy="59.2996" r="0.7" fill="#FAFAFA"/>
<circle opacity="0.73" cx="52.9002" cy="59.2996" r="0.7" fill="#FAFAFA"/>
<circle opacity="0.63" cx="57.1004" cy="59.2996" r="0.7" fill="#FAFAFA"/>
</g>
<path opacity="0.3" d="M14.875 32C14.875 21.4376 23.4376 12.875 34 12.875C44.5624 12.875 53.125 21.4376 53.125 32C53.125 42.5624 44.5624 51.125 34 51.125C23.4376 51.125 14.875 42.5624 14.875 32Z" stroke="url(#paint1_linear_4116_5219)" stroke-width="1.75"/>
<path d="M34 22C39.5228 22 44 26.4771 44 32C44 33.6169 43.6162 35.1442 42.9348 36.4958C42.8633 36.2175 42.7307 35.9523 42.5374 35.7206L42.4142 35.5858L41 34.1716L39.5858 35.5858L39.469 35.713C38.8069 36.4988 38.8458 37.6743 39.5858 38.4142C40.014 38.8424 40.588 39.0358 41.148 38.9946C39.3323 40.8487 36.8006 42 34 42C28.4771 42 24 37.5228 24 32C24 26.4771 28.4771 22 34 22ZM34 35C32.6199 35 31.3704 35.5592 30.4656 36.4633L30.3001 36.6368L31.2451 37.4961C32.035 37.1825 32.982 37 34 37C34.9049 37 35.7537 37.1442 36.4859 37.3965L36.7549 37.4961L37.6999 36.6368C36.7853 35.6312 35.4664 35 34 35ZM30.5 30C29.6716 30 29 30.6716 29 31.5C29 32.3284 29.6716 33 30.5 33C31.3284 33 32 32.3284 32 31.5C32 30.6716 31.3284 30 30.5 30ZM37.5 30C36.6716 30 36 30.6716 36 31.5C36 32.3284 36.6716 33 37.5 33C38.3284 33 39 32.3284 39 31.5C39 30.6716 38.3284 30 37.5 30Z" fill="#3F3F46"/>
</g>
<rect x="6.5" y="4.5" width="55" height="55" rx="27.5" stroke="url(#paint2_linear_4116_5219)" stroke-opacity="0.3"/>
</g>
<defs>
<filter id="filter0_dd_4116_5219" x="0" y="0.799999" width="68" height="68" filterUnits="userSpaceOnUse" color-interpolation-filters="sRGB">
<feFlood flood-opacity="0" result="BackgroundImageFix"/>
<feColorMatrix in="SourceAlpha" type="matrix" values="0 0 0 0 0 0 0 0 0 0 0 0 0 0 0 0 0 0 127 0" result="hardAlpha"/>
<feMorphology radius="1.4" operator="dilate" in="SourceAlpha" result="effect1_dropShadow_4116_5219"/>
<feOffset/>
<feComposite in2="hardAlpha" operator="out"/>
<feColorMatrix type="matrix" values="0 0 0 0 0.831373 0 0 0 0 0.831373 0 0 0 0 0.847059 0 0 0 1 0"/>
<feBlend mode="normal" in2="BackgroundImageFix" result="effect1_dropShadow_4116_5219"/>
<feColorMatrix in="SourceAlpha" type="matrix" values="0 0 0 0 0 0 0 0 0 0 0 0 0 0 0 0 0 0 127 0" result="hardAlpha"/>
<feMorphology radius="1" operator="erode" in="SourceAlpha" result="effect2_dropShadow_4116_5219"/>
<feOffset dy="2.8"/>
<feGaussianBlur stdDeviation="3.5"/>
<feComposite in2="hardAlpha" operator="out"/>
<feColorMatrix type="matrix" values="0 0 0 0 0.161857 0 0 0 0 0.171682 0 0 0 0 0.197884 0 0 0 0.5 0"/>
<feBlend mode="normal" in2="effect1_dropShadow_4116_5219" result="effect2_dropShadow_4116_5219"/>
<feBlend mode="normal" in="SourceGraphic" in2="effect2_dropShadow_4116_5219" result="shape"/>
</filter>
<linearGradient id="paint0_linear_4116_5219" x1="34" y1="4" x2="34" y2="60" gradientUnits="userSpaceOnUse">
<stop offset="0.328125" stop-opacity="0"/>
<stop offset="1"/>
</linearGradient>
<linearGradient id="paint1_linear_4116_5219" x1="34" y1="12" x2="34" y2="52" gradientUnits="userSpaceOnUse">
<stop offset="0.735221" stop-color="white" stop-opacity="0"/>
<stop offset="1" stop-color="white"/>
</linearGradient>
<linearGradient id="paint2_linear_4116_5219" x1="34" y1="4" x2="34" y2="60" gradientUnits="userSpaceOnUse">
<stop offset="0.09375" stop-color="white" stop-opacity="0"/>
<stop offset="1" stop-color="white"/>
</linearGradient>
<clipPath id="clip0_4116_5219">
<rect x="6" y="4" width="56" height="56" rx="28" fill="white"/>
</clipPath>
</defs>
</svg>
