<svg width="36" height="36" viewBox="0 0 36 36" fill="none" xmlns="http://www.w3.org/2000/svg">
<rect x="0.5" y="0.5" width="35" height="35" rx="17.5" fill="white"/>
<rect x="0.5" y="0.5" width="35" height="35" rx="17.5" stroke="#E4E4E7"/>
<path d="M16.0754 13.7461C16.1073 13.5412 16.2387 13.3739 16.4153 13.2894C16.4962 13.2508 16.5854 13.2295 16.6796 13.2295H20.5125C20.9666 13.2295 21.3904 13.2592 21.7771 13.3217C21.8877 13.3395 21.9952 13.3598 22.0999 13.3827C22.2042 13.4062 22.3058 13.4323 22.4044 13.4609C22.4534 13.4755 22.5018 13.4907 22.5493 13.5058C22.7395 13.5689 22.9163 13.6434 23.0794 13.7294C23.2714 12.5059 23.0779 11.6728 22.4164 10.9184C21.6871 10.088 20.3707 9.73242 18.6863 9.73242H13.7962C13.4521 9.73242 13.1587 9.98265 13.1054 10.3231L11.0687 23.2337C11.0285 23.4891 11.2255 23.7196 11.483 23.7196H14.5021L15.2601 18.9104L16.0754 13.7461Z" fill="#253B80"/>
<path d="M22.4031 13.46C22.3046 13.4313 22.2029 13.4052 22.0986 13.3818C21.9938 13.3589 21.8864 13.3385 21.7759 13.3208C21.3891 13.2582 20.9653 13.2285 20.5112 13.2285H16.6784C16.584 13.2285 16.4944 13.2499 16.4141 13.2885C16.2374 13.3734 16.1061 13.5408 16.0742 13.7457L15.2588 18.9099L15.2354 19.0606C15.2891 18.7207 15.5795 18.4704 15.924 18.4704H17.3587C20.1765 18.4704 22.3828 17.3261 23.0277 14.0157C23.0469 13.9177 23.0631 13.8223 23.0776 13.729C22.9145 13.6424 22.7377 13.5684 22.5474 13.5053C22.5006 13.4897 22.4522 13.4746 22.4031 13.46Z" fill="#222D65"/>
<path d="M23.0785 13.7285C23.0639 13.8218 23.0472 13.9172 23.0285 14.0152C22.3835 17.3262 20.1773 18.47 17.3595 18.47H15.9248C15.5803 18.47 15.2899 18.7202 15.2362 19.0601L14.5016 23.7187L14.2936 25.0392C14.2586 25.2623 14.4308 25.4636 14.6559 25.4636H17.2006C17.5019 25.4636 17.7578 25.2446 17.8052 24.9475L17.8303 24.8181L18.3094 21.7777L18.3402 21.611C18.387 21.3128 18.6435 21.0939 18.9448 21.0939H19.3254C21.7907 21.0939 23.7208 20.0929 24.2849 17.1964C24.5205 15.9864 24.3985 14.9761 23.7749 14.2655C23.5863 14.0512 23.3522 13.8734 23.0785 13.7285Z" fill="#179BD7"/>
</svg>
