<svg width="102" height="80" viewBox="0 0 102 80" fill="none" xmlns="http://www.w3.org/2000/svg">
<mask id="mask0_4169_7061" style="mask-type:alpha" maskUnits="userSpaceOnUse" x="1" y="2" width="100" height="78">
<path d="M1 24.5452V79.7182V80H101V3.9727L89.3117 13.0638L77.6234 2L65.9351 16.049L54.2467 14.8069L42.5584 23.8145L30.8701 24.5452L20.9362 10.4127L7.49351 20.8816L1 24.5452Z" fill="url(#paint0_linear_4169_7061)"/>
<path d="M1 24.5452V79.7182V80H101V3.9727L89.3117 13.0638L77.6234 2L65.9351 16.049L54.2467 14.8069L42.5584 23.8145L30.8701 24.5452L20.9362 10.4127L7.49351 20.8816L1 24.5452Z" fill="url(#paint1_linear_4169_7061)"/>
</mask>
<g mask="url(#mask0_4169_7061)">
<path d="M5.39957 -245.473L5.39957 281.777" stroke="#8B5CF6"/>
<path d="M11.0998 -245.473L11.0998 281.777" stroke="#8B5CF6"/>
<path d="M16.8 -245.473L16.8 281.777" stroke="#8B5CF6"/>
<path d="M22.5002 -245.473L22.5002 281.777" stroke="#8B5CF6"/>
<path d="M28.2004 -245.473L28.2004 281.777" stroke="#8B5CF6"/>
<path d="M33.8996 -245.473L33.8996 281.777" stroke="#8B5CF6"/>
<path d="M39.5998 -245.473L39.5998 281.777" stroke="#8B5CF6"/>
<path d="M45.3 -245.473L45.3 281.777" stroke="#8B5CF6"/>
<path d="M51.0002 -245.473L51.0002 281.777" stroke="#8B5CF6"/>
<path d="M56.7004 -245.473L56.7004 281.777" stroke="#8B5CF6"/>
<path d="M62.3996 -245.473L62.3996 281.777" stroke="#8B5CF6"/>
<path d="M68.0998 -245.473L68.0998 281.777" stroke="#8B5CF6"/>
<path d="M73.8 -245.473L73.8 281.777" stroke="#8B5CF6"/>
<path d="M79.5002 -245.473L79.5002 281.777" stroke="#8B5CF6"/>
<path d="M85.2004 -245.473L85.2004 281.777" stroke="#8B5CF6"/>
<path d="M90.8996 -245.473L90.8996 281.777" stroke="#8B5CF6"/>
<path d="M96.5998 -245.473L96.5998 281.777" stroke="#8B5CF6"/>
</g>
<path d="M1 24.5452L7.49351 20.8816L20.9362 10.4127L30.8701 24.5452L42.5584 23.8145L54.2467 14.8069L65.9351 16.049L77.6234 2L89.3117 13.0638L101 3.9727" stroke="#7C3AED" stroke-width="2" stroke-linecap="round"/>
<defs>
<linearGradient id="paint0_linear_4169_7061" x1="1" y1="41" x2="88.1753" y2="41" gradientUnits="userSpaceOnUse">
<stop stop-color="#FC5452" stop-opacity="0.16"/>
<stop offset="1" stop-color="#5654D4" stop-opacity="0.16"/>
</linearGradient>
<linearGradient id="paint1_linear_4169_7061" x1="51" y1="23.5" x2="51" y2="80" gradientUnits="userSpaceOnUse">
<stop stop-color="white" stop-opacity="0"/>
<stop offset="1" stop-color="white"/>
</linearGradient>
</defs>
</svg>
