<svg width="18" height="18" viewBox="0 0 18 18" fill="none" xmlns="http://www.w3.org/2000/svg">
<path d="M9.00033 17.3327C4.39795 17.3327 0.666992 13.6017 0.666992 8.99935C0.666992 4.39697 4.39795 0.666016 9.00033 0.666016C13.6027 0.666016 17.3337 4.39697 17.3337 8.99935C17.3337 13.6017 13.6027 17.3327 9.00033 17.3327ZM9.00033 15.666C12.6822 15.666 15.667 12.6813 15.667 8.99935C15.667 5.31745 12.6822 2.33268 9.00033 2.33268C5.31843 2.33268 2.33366 5.31745 2.33366 8.99935C2.33366 12.6813 5.31843 15.666 9.00033 15.666ZM8.16699 11.4993H9.83366V13.166H8.16699V11.4993ZM9.83366 10.1286V10.666H8.16699V9.41602C8.16699 8.95577 8.54008 8.58268 9.00033 8.58268C9.69066 8.58268 10.2503 8.02302 10.2503 7.33268C10.2503 6.64232 9.69066 6.08268 9.00033 6.08268C8.39391 6.08268 7.88833 6.51454 7.77433 7.08749L6.13975 6.76057C6.40563 5.42367 7.58533 4.41602 9.00033 4.41602C10.6112 4.41602 11.917 5.72185 11.917 7.33268C11.917 8.65393 11.0384 9.77002 9.83366 10.1286Z" fill="#0A0A0A"/>
</svg>
