<svg width="12" height="12" viewBox="0 0 12 12" fill="none" xmlns="http://www.w3.org/2000/svg">
<path d="M4.66667 3.33333H7.33333V2.33333C7.33333 1.04467 8.378 0 9.66667 0C10.9553 0 12 1.04467 12 2.33333C12 3.622 10.9553 4.66667 9.66667 4.66667H8.66667V7.33333H9.66667C10.9553 7.33333 12 8.378 12 9.66667C12 10.9553 10.9553 12 9.66667 12C8.378 12 7.33333 10.9553 7.33333 9.66667V8.66667H4.66667V9.66667C4.66667 10.9553 3.622 12 2.33333 12C1.04467 12 0 10.9553 0 9.66667C0 8.378 1.04467 7.33333 2.33333 7.33333H3.33333V4.66667H2.33333C1.04467 4.66667 0 3.622 0 2.33333C0 1.04467 1.04467 0 2.33333 0C3.622 0 4.66667 1.04467 4.66667 2.33333V3.33333ZM3.33333 3.33333V2.33333C3.33333 1.78105 2.88562 1.33333 2.33333 1.33333C1.78105 1.33333 1.33333 1.78105 1.33333 2.33333C1.33333 2.88562 1.78105 3.33333 2.33333 3.33333H3.33333ZM3.33333 8.66667H2.33333C1.78105 8.66667 1.33333 9.1144 1.33333 9.66667C1.33333 10.2189 1.78105 10.6667 2.33333 10.6667C2.88562 10.6667 3.33333 10.2189 3.33333 9.66667V8.66667ZM8.66667 3.33333H9.66667C10.2189 3.33333 10.6667 2.88562 10.6667 2.33333C10.6667 1.78105 10.2189 1.33333 9.66667 1.33333C9.1144 1.33333 8.66667 1.78105 8.66667 2.33333V3.33333ZM8.66667 8.66667V9.66667C8.66667 10.2189 9.1144 10.6667 9.66667 10.6667C10.2189 10.6667 10.6667 10.2189 10.6667 9.66667C10.6667 9.1144 10.2189 8.66667 9.66667 8.66667H8.66667ZM4.66667 4.66667V7.33333H7.33333V4.66667H4.66667Z" fill="#030712"/>
</svg>
