<svg width="40" height="40" viewBox="0 0 40 40" fill="none" xmlns="http://www.w3.org/2000/svg">
<rect x="0.5" y="0.5" width="39" height="39" rx="19.5" fill="#151515"/>
<rect x="0.5" y="0.5" width="39" height="39" rx="19.5" stroke="#151515" stroke-linejoin="round"/>
<path d="M21.81 12.5C22.252 12.5 22.6759 12.6756 22.9885 12.9882L27.0122 17.0118C27.3247 17.3244 27.5003 17.7483 27.5003 18.1904V24.1667H29.167V25.8333L22.3952 25.834C22.0249 27.2713 20.72 28.3333 19.167 28.3333C17.614 28.3333 16.3091 27.2713 15.9388 25.834L12.5003 25.8333C12.0401 25.8333 11.667 25.4603 11.667 25V14.1667C11.667 13.2462 12.4132 12.5 13.3337 12.5H21.81ZM19.167 23.3333C18.2465 23.3333 17.5003 24.0795 17.5003 25C17.5003 25.9205 18.2465 26.6667 19.167 26.6667C20.0875 26.6667 20.8337 25.9205 20.8337 25C20.8337 24.0795 20.0875 23.3333 19.167 23.3333ZM21.81 14.1667H13.3337V24.1667L15.9386 24.1668C16.3086 22.7291 17.6137 21.6667 19.167 21.6667C20.7202 21.6667 22.0254 22.7291 22.3953 24.1668L25.8337 24.1667V18.1904L21.81 14.1667ZM21.667 15.8333V20.8333H15.0003V15.8333H21.667ZM20.0003 17.5H16.667V19.1667H20.0003V17.5Z" fill="white"/>
</svg>
