<svg width="200" height="200" viewBox="0 0 200 200" fill="none" xmlns="http://www.w3.org/2000/svg">
<g clip-path="url(#clip0_4144_14888)">
<path d="M64.8947 70.3359L38.6224 166.097C37.5154 170.125 37.8474 174.366 39.5707 178.212C41.294 182.058 44.3199 185.311 48.2143 187.505C58.236 193.143 74.8042 199.246 100.14 199.946C126.996 200.687 144.862 193.708 155.426 187.373C159.16 185.132 162.035 181.901 163.658 178.123C165.281 174.345 165.572 170.205 164.492 166.271L138.17 70.3359" fill="#FAFAFA"/>
<path d="M101.532 74.7845C136.365 74.7845 164.603 66.1701 164.603 55.5436C164.603 44.9172 136.365 36.3027 101.532 36.3027C66.6991 36.3027 38.4614 44.9172 38.4614 55.5436C38.4614 66.1701 66.6991 74.7845 101.532 74.7845Z" fill="#52525B"/>
<path d="M101.532 75.1045C84.6479 75.1045 68.7694 73.0972 56.8218 69.4513C44.7544 65.7699 38.1084 60.8307 38.1084 55.5435C38.1084 50.2562 44.7538 45.317 56.8218 41.6356C68.7694 37.9908 84.6479 35.9824 101.532 35.9824C118.417 35.9824 134.295 37.99 146.243 41.6356C158.31 45.317 164.956 50.2562 164.956 55.5435C164.956 60.8307 158.31 65.7699 146.243 69.4513C134.295 73.0972 118.416 75.1045 101.532 75.1045ZM101.532 36.6227C84.7225 36.6227 68.9243 38.6182 57.0471 42.2414C45.2897 45.8283 38.8144 50.5527 38.8144 55.5443C38.8144 60.5359 45.2897 65.2603 57.0471 68.8471C68.9243 72.4704 84.7229 74.4658 101.532 74.4658C118.342 74.4658 134.14 72.4704 146.017 68.8471C157.775 65.2603 164.25 60.5359 164.25 55.5443C164.25 50.5527 157.775 45.8283 146.017 42.2414C134.14 38.6182 118.342 36.6227 101.532 36.6227Z" fill="#52525B"/>
<path d="M101.532 67.455C147.298 67.455 184.399 58.2218 184.399 46.832C184.399 35.4422 147.298 26.209 101.532 26.209C55.7666 26.209 18.666 35.4422 18.666 46.832C18.666 58.2218 55.7666 67.455 101.532 67.455Z" fill="#3F3F46"/>
<path d="M101.532 67.7747C79.3669 67.7747 58.5239 65.6254 42.843 61.7228C27.0243 57.786 18.3125 52.498 18.3125 46.8316C18.3125 41.1652 27.0243 35.8779 42.843 31.9403C58.5239 28.0377 79.3669 25.8887 101.532 25.8887C123.698 25.8887 144.54 28.0377 160.221 31.9403C176.04 35.8771 184.752 41.1654 184.752 46.8316C184.752 52.4977 176.04 57.7852 160.221 61.7228C144.54 65.6254 123.697 67.7747 101.532 67.7747ZM101.532 26.5287C79.4285 26.5287 58.652 28.67 43.0302 32.5577C35.4548 34.4429 29.5133 36.6349 25.37 39.0727C21.1554 41.5526 19.0185 44.1633 19.0185 46.8324C19.0185 49.5015 21.1554 52.1124 25.37 54.5921C29.5133 57.0299 35.4548 59.2219 43.0302 61.1073C58.652 64.9956 79.4272 67.1361 101.532 67.1361C123.637 67.1361 144.412 64.995 160.034 61.1073C167.609 59.2219 173.551 57.0299 177.694 54.5921C181.909 52.1124 184.046 49.5015 184.046 46.8324C184.046 44.1633 181.909 41.5526 177.694 39.0727C173.551 36.6349 167.609 34.4429 160.034 32.5577C144.412 28.67 123.636 26.5298 101.532 26.5298V26.5287Z" fill="#52525B"/>
<path d="M139.66 34.8127C139.66 43.9297 122.193 46.0774 103.979 46.4676C84.1339 46.8926 63.4053 43.7902 63.4053 34.8127C63.4338 25.6817 67.4635 16.9335 74.6108 10.4861C81.7581 4.03859 91.4398 0.417969 101.533 0.417969C111.627 0.417969 121.309 4.03859 128.456 10.4861C135.603 16.9335 139.633 25.6817 139.661 34.8127H139.66Z" fill="white"/>
<path d="M100.282 46.8253C83.4243 46.8253 70.5909 44.2607 65.5626 39.8209C63.8961 38.3489 63.0514 36.6634 63.0514 34.8117C63.0372 30.2319 64.022 25.6947 65.9494 21.4599C67.8769 17.2251 70.7091 13.3759 74.2838 10.133C77.8585 6.8901 82.1054 4.31715 86.7811 2.56158C91.4569 0.806016 96.4697 -0.0976562 101.532 -0.0976562C106.595 -0.0976563 111.607 0.806016 116.283 2.56158C120.959 4.31715 125.206 6.8901 128.781 10.133C132.355 13.3759 135.187 17.2251 137.115 21.4599C139.042 25.6947 140.027 30.2319 140.013 34.8117C140.013 39.1122 136.223 42.2771 128.747 44.2185C122.995 45.7123 114.896 46.552 103.987 46.7856C102.732 46.8121 101.497 46.8253 100.282 46.8253ZM101.531 0.63844C91.5163 0.648658 81.9146 4.25225 74.8329 10.6587C67.7511 17.065 63.7676 25.7511 63.7562 34.8111C63.7562 36.4844 64.5296 38.016 66.0549 39.3634C71.3109 44.007 85.4832 46.5421 103.969 46.1472C119.14 45.8226 139.309 44.2938 139.309 34.8119C139.297 25.7517 135.314 17.0655 128.232 10.659C121.15 4.25257 111.548 0.64912 101.532 0.639267L101.531 0.63844Z" fill="#52525B"/>
<path d="M39.832 49.5927C42.5664 49.5927 44.7831 47.5874 44.7831 45.1137C44.7831 42.6401 42.5664 40.6348 39.832 40.6348C37.0975 40.6348 34.8809 42.6401 34.8809 45.1137C34.8809 47.5874 37.0975 49.5927 39.832 49.5927Z" fill="white"/>
<path d="M39.8319 49.911C38.7829 49.911 37.7574 49.6296 36.8851 49.1024C36.0129 48.5751 35.333 47.8258 34.9316 46.949C34.5301 46.0722 34.4251 45.1074 34.6298 44.1766C34.8344 43.2459 35.3396 42.3909 36.0814 41.7198C36.8232 41.0488 37.7683 40.5918 38.7972 40.4067C39.826 40.2215 40.8925 40.3165 41.8617 40.6797C42.8309 41.0429 43.6593 41.6579 44.2421 42.447C44.8249 43.236 45.136 44.1637 45.136 45.1128C45.1344 46.3849 44.5751 47.6045 43.5807 48.504C42.5863 49.4036 41.2382 49.9096 39.8319 49.911ZM39.8319 40.9528C38.9224 40.9528 38.0334 41.1968 37.2772 41.6539C36.521 42.111 35.9316 42.7607 35.5836 43.5208C35.2355 44.2809 35.1445 45.1174 35.3219 45.9243C35.4993 46.7312 35.9373 47.4725 36.5804 48.0542C37.2235 48.636 38.0428 49.0322 38.9348 49.1927C39.8268 49.3532 40.7514 49.2708 41.5917 48.956C42.4319 48.6411 43.1501 48.108 43.6554 47.4239C44.1606 46.7398 44.4303 45.9355 44.4303 45.1128C44.4291 44.0098 43.9443 42.9524 43.0822 42.1725C42.22 41.3926 41.0511 40.9539 39.8319 40.9528Z" fill="#52525B"/>
<path d="M101.532 62.4208C104.267 62.4208 106.483 60.4155 106.483 57.9418C106.483 55.4682 104.267 53.4629 101.532 53.4629C98.7977 53.4629 96.5811 55.4682 96.5811 57.9418C96.5811 60.4155 98.7977 62.4208 101.532 62.4208Z" fill="white"/>
<path d="M101.532 62.7392C100.483 62.7392 99.4576 62.4578 98.5853 61.9305C97.7131 61.4033 97.0332 60.6539 96.6318 59.7771C96.2303 58.9003 96.1253 57.9356 96.3299 57.0048C96.5346 56.074 97.0398 55.219 97.7816 54.548C98.5234 53.8769 99.4685 53.4199 100.497 53.2348C101.526 53.0496 102.593 53.1447 103.562 53.5078C104.531 53.871 105.359 54.486 105.942 55.2751C106.525 56.0642 106.836 56.9919 106.836 57.9409C106.835 59.213 106.275 60.4326 105.281 61.3322C104.287 62.2317 102.938 62.7377 101.532 62.7392ZM101.532 53.7813C100.623 53.7813 99.7337 54.0252 98.9776 54.4823C98.2214 54.9393 97.632 55.589 97.284 56.3491C96.936 57.1091 96.845 57.9455 97.0224 58.7524C97.1998 59.5593 97.6377 60.3004 98.2808 60.8822C98.9238 61.4639 99.7431 61.8601 100.635 62.0206C101.527 62.1811 102.452 62.0987 103.292 61.7839C104.132 61.469 104.85 60.9359 105.355 60.2518C105.861 59.5678 106.13 58.7636 106.13 57.9409C106.129 56.838 105.644 55.7807 104.782 55.0009C103.92 54.221 102.751 53.7824 101.532 53.7813Z" fill="#52525B"/>
<path d="M163.223 49.5927C165.957 49.5927 168.174 47.5874 168.174 45.1137C168.174 42.6401 165.957 40.6348 163.223 40.6348C160.488 40.6348 158.271 42.6401 158.271 45.1137C158.271 47.5874 160.488 49.5927 163.223 49.5927Z" fill="white"/>
<path d="M163.222 49.911C162.173 49.911 161.148 49.6296 160.275 49.1024C159.403 48.5751 158.723 47.8258 158.322 46.949C157.92 46.0722 157.815 45.1074 158.02 44.1766C158.225 43.2459 158.73 42.3909 159.472 41.7198C160.213 41.0488 161.158 40.5918 162.187 40.4067C163.216 40.2215 164.283 40.3165 165.252 40.6797C166.221 41.0429 167.049 41.6579 167.632 42.447C168.215 43.236 168.526 44.1637 168.526 45.1128C168.525 46.3849 167.965 47.6045 166.971 48.504C165.976 49.4036 164.628 49.9096 163.222 49.911ZM163.222 40.9528C162.313 40.9528 161.424 41.1968 160.667 41.6539C159.911 42.111 159.322 42.7607 158.974 43.5208C158.626 44.2809 158.535 45.1174 158.712 45.9243C158.889 46.7312 159.327 47.4725 159.971 48.0542C160.614 48.636 161.433 49.0322 162.325 49.1927C163.217 49.3532 164.142 49.2708 164.982 48.956C165.822 48.6411 166.54 48.108 167.046 47.4239C167.551 46.7398 167.82 45.9355 167.82 45.1128C167.819 44.0098 167.334 42.9524 166.472 42.1725C165.61 41.3926 164.441 40.9539 163.222 40.9528Z" fill="#52525B"/>
<path d="M136.91 57.9403C139.644 57.9403 141.861 55.935 141.861 53.4614C141.861 50.9877 139.644 48.9824 136.91 48.9824C134.175 48.9824 131.958 50.9877 131.958 53.4614C131.958 55.935 134.175 57.9403 136.91 57.9403Z" fill="white"/>
<path d="M136.91 58.2587C135.861 58.2587 134.835 57.9773 133.963 57.45C133.091 56.9228 132.411 56.1734 132.009 55.2966C131.608 54.4199 131.503 53.4551 131.707 52.5243C131.912 51.5935 132.417 50.7386 133.159 50.0675C133.901 49.3964 134.846 48.9395 135.875 48.7543C136.904 48.5692 137.97 48.6642 138.939 49.0274C139.909 49.3905 140.737 50.0055 141.32 50.7946C141.903 51.5837 142.214 52.5114 142.214 53.4604C142.212 54.7325 141.653 55.9522 140.658 56.8517C139.664 57.7512 138.316 58.2572 136.91 58.2587ZM136.91 49.3005C136 49.3005 135.111 49.5444 134.355 50.0014C133.599 50.4585 133.009 51.1082 132.661 51.8683C132.313 52.6284 132.222 53.4648 132.399 54.2718C132.577 55.0787 133.015 55.82 133.658 56.4018C134.301 56.9836 135.12 57.3798 136.012 57.5403C136.904 57.7009 137.829 57.6185 138.669 57.3037C139.509 56.9888 140.227 56.4556 140.733 55.7715C141.238 55.0875 141.508 54.2832 141.508 53.4604C141.506 52.3575 141.022 51.3001 140.16 50.5202C139.298 49.7403 138.129 49.3017 136.91 49.3005Z" fill="#52525B"/>
<path d="M66.1547 58.5497C68.8891 58.5497 71.1058 56.5444 71.1058 54.0708C71.1058 51.5971 68.8891 49.5918 66.1547 49.5918C63.4203 49.5918 61.2036 51.5971 61.2036 54.0708C61.2036 56.5444 63.4203 58.5497 66.1547 58.5497Z" fill="white"/>
<path d="M66.1547 58.87C65.1056 58.87 64.0801 58.5886 63.2079 58.0614C62.3356 57.5341 61.6558 56.7847 61.2543 55.908C60.8529 55.0312 60.7478 54.0664 60.9525 53.1356C61.1572 52.2049 61.6623 51.3499 62.4041 50.6788C63.1459 50.0078 64.091 49.5508 65.1199 49.3656C66.1488 49.1805 67.2153 49.2755 68.1845 49.6387C69.1537 50.0019 69.9821 50.6169 70.5649 51.4059C71.1477 52.195 71.4588 53.1227 71.4588 54.0717C71.4572 55.3439 70.8978 56.5635 69.9035 57.463C68.9091 58.3626 67.5609 58.8686 66.1547 58.87ZM66.1547 49.9118C65.2451 49.9116 64.3559 50.1553 63.5995 50.6123C62.8431 51.0692 62.2535 51.7188 61.9052 52.4789C61.5569 53.239 61.4657 54.0755 61.6429 54.8825C61.8202 55.6896 62.2581 56.4309 62.9012 57.0128C63.5442 57.5947 64.3636 57.991 65.2557 58.1516C66.1477 58.3122 67.0724 58.2299 67.9128 57.915C68.7531 57.6002 69.4713 57.067 69.9766 56.3828C70.4819 55.6986 70.7516 54.8943 70.7516 54.0715C70.7503 52.9688 70.2656 51.9116 69.4038 51.1318C68.5421 50.352 67.3736 49.9133 66.1547 49.9118Z" fill="#52525B"/>
<path d="M154.032 30.8745C153.663 31.8855 152.908 32.7446 151.902 33.2977C150.897 33.8509 149.706 34.062 148.544 33.8931C147.382 33.7243 146.325 33.1865 145.561 32.3763C144.797 31.5661 144.378 30.5364 144.377 29.4717C144.377 29.3716 144.382 29.2737 144.389 29.1758C147.771 29.6868 150.992 30.2529 154.032 30.8745Z" fill="white"/>
<path d="M149.329 34.27C147.922 34.2688 146.574 33.7629 145.579 32.8633C144.585 31.9637 144.026 30.7439 144.024 29.4717C144.024 29.3647 144.029 29.2597 144.037 29.1549L144.063 28.8027L144.447 28.8609C147.847 29.3747 151.098 29.9474 154.11 30.5629L154.49 30.6407L154.368 30.9747C154.019 31.9344 153.344 32.7699 152.439 33.3617C151.534 33.9535 150.445 34.2715 149.329 34.27ZM144.732 29.552C144.752 30.5035 145.132 31.4199 145.809 32.1484C146.486 32.8769 147.419 33.3734 148.451 33.5552C149.484 33.737 150.554 33.593 151.484 33.1473C152.413 32.7016 153.146 31.9811 153.559 31.1059C150.791 30.5475 147.826 30.0255 144.732 29.552Z" fill="#52525B"/>
<path d="M58.1542 29.4729C58.1539 30.5286 57.7414 31.5502 56.9897 32.3577C56.2379 33.1651 55.1951 33.7064 54.0452 33.8861C52.8952 34.0658 51.7121 33.8724 50.7045 33.34C49.6968 32.8075 48.9294 31.9702 48.5376 30.9758C51.5658 30.3498 54.7754 29.7751 58.1472 29.2578C58.1517 29.3281 58.1542 29.4004 58.1542 29.4729Z" fill="white"/>
<path d="M53.2036 34.2699C52.109 34.2685 51.0415 33.9616 50.1469 33.3911C49.2522 32.8207 48.5738 32.0144 48.2043 31.0823L48.0708 30.7437L48.4582 30.6637C51.5014 30.0347 54.7412 29.4556 58.0873 28.9424L58.4751 28.8828L58.4988 29.2377C58.504 29.3144 58.5065 29.3933 58.5065 29.4721C58.5048 30.744 57.9456 31.9634 56.9515 32.8628C55.9574 33.7622 54.6095 34.2683 53.2036 34.2699ZM49.021 31.2031C49.4514 32.0536 50.1861 32.7481 51.1065 33.1744C52.0269 33.6008 53.0793 33.734 54.0937 33.5528C55.1081 33.3715 56.0255 32.8863 56.6976 32.1754C57.3697 31.4646 57.7574 30.5695 57.798 29.6348C54.757 30.1075 51.8087 30.6342 49.021 31.2031Z" fill="#52525B"/>
<path d="M3.60236 70.655C3.55601 70.655 3.51013 70.6468 3.46732 70.6307C3.42451 70.6147 3.38561 70.5911 3.35286 70.5615C3.3201 70.5318 3.29413 70.4966 3.27642 70.4579C3.25872 70.4191 3.24962 70.3776 3.24966 70.3357V61.3268C3.24828 61.2841 3.25638 61.2415 3.27348 61.2017C3.29059 61.1619 3.31636 61.1256 3.34926 61.0949C3.38216 61.0643 3.42153 61.0399 3.46503 61.0233C3.50853 61.0066 3.55528 60.998 3.60251 60.998C3.64974 60.998 3.69649 61.0066 3.73999 61.0233C3.78349 61.0399 3.82285 61.0643 3.85576 61.0949C3.88866 61.1256 3.91442 61.1619 3.93153 61.2017C3.94864 61.2415 3.95674 61.2841 3.95535 61.3268V70.3357C3.95539 70.3776 3.94629 70.4192 3.92856 70.4579C3.91084 70.4967 3.88484 70.5319 3.85205 70.5616C3.81926 70.5912 3.78033 70.6148 3.73749 70.6308C3.69464 70.6468 3.64872 70.6551 3.60236 70.655Z" fill="#3F3F46"/>
<path d="M6.85173 66.1504H0.352997C0.259376 66.1504 0.16959 66.1167 0.10339 66.0569C0.0371906 65.997 0 65.9157 0 65.8311C0 65.7464 0.0371906 65.6651 0.10339 65.6053C0.16959 65.5454 0.259376 65.5117 0.352997 65.5117H6.85173C6.94535 65.5117 7.03514 65.5454 7.10134 65.6053C7.16754 65.6651 7.20473 65.7464 7.20473 65.8311C7.20473 65.9157 7.16754 65.997 7.10134 66.0569C7.03514 66.1167 6.94535 66.1504 6.85173 66.1504Z" fill="#3F3F46"/>
<path d="M74.9334 104.796C74.8871 104.796 74.8412 104.787 74.7984 104.771C74.7556 104.755 74.7167 104.732 74.6839 104.702C74.6512 104.672 74.6252 104.637 74.6075 104.599C74.5898 104.56 74.5807 104.518 74.5807 104.476V95.4674C74.5793 95.4247 74.5874 95.3822 74.6045 95.3423C74.6216 95.3025 74.6474 95.2662 74.6803 95.2355C74.7132 95.2049 74.7526 95.1805 74.7961 95.1639C74.8396 95.1472 74.8863 95.1387 74.9336 95.1387C74.9808 95.1387 75.0275 95.1472 75.071 95.1639C75.1145 95.1805 75.1539 95.2049 75.1868 95.2355C75.2197 95.2662 75.2455 95.3025 75.2626 95.3423C75.2797 95.3822 75.2878 95.4247 75.2864 95.4674V104.476C75.2864 104.518 75.2773 104.56 75.2596 104.599C75.2419 104.637 75.2159 104.673 75.1831 104.702C75.1503 104.732 75.1114 104.755 75.0685 104.771C75.0257 104.787 74.9798 104.796 74.9334 104.796Z" fill="#3F3F46"/>
<path d="M78.1828 100.291H71.6841C71.5904 100.291 71.5006 100.257 71.4344 100.197C71.3682 100.138 71.3311 100.056 71.3311 99.9717C71.3311 99.887 71.3682 99.8058 71.4344 99.7459C71.5006 99.686 71.5904 99.6523 71.6841 99.6523H78.1828C78.2764 99.6523 78.3662 99.686 78.4324 99.7459C78.4986 99.8058 78.5358 99.887 78.5358 99.9717C78.5358 100.056 78.4986 100.138 78.4324 100.197C78.3662 100.257 78.2764 100.291 78.1828 100.291Z" fill="#3F3F46"/>
<path d="M21.8924 193.317C21.8461 193.317 21.8002 193.309 21.7574 193.293C21.7145 193.277 21.6757 193.253 21.6429 193.224C21.6101 193.194 21.5842 193.159 21.5665 193.12C21.5488 193.081 21.5397 193.04 21.5397 192.998V183.989C21.5383 183.946 21.5464 183.904 21.5635 183.864C21.5806 183.824 21.6064 183.788 21.6393 183.757C21.6722 183.726 21.7116 183.702 21.7551 183.685C21.7986 183.669 21.8453 183.66 21.8925 183.66C21.9398 183.66 21.9865 183.669 22.03 183.685C22.0735 183.702 22.1129 183.726 22.1458 183.757C22.1787 183.788 22.2045 183.824 22.2216 183.864C22.2387 183.904 22.2468 183.946 22.2454 183.989V192.998C22.2454 193.04 22.2363 193.081 22.2186 193.12C22.2009 193.159 22.1749 193.194 22.1421 193.224C22.1093 193.253 22.0704 193.277 22.0275 193.293C21.9847 193.309 21.9388 193.317 21.8924 193.317Z" fill="#3F3F46"/>
<path d="M25.1418 188.812H18.643C18.5494 188.812 18.4596 188.779 18.3934 188.719C18.3272 188.659 18.29 188.578 18.29 188.493C18.29 188.408 18.3272 188.327 18.3934 188.267C18.4596 188.207 18.5494 188.174 18.643 188.174H25.1418C25.2354 188.174 25.3252 188.207 25.3914 188.267C25.4576 188.327 25.4948 188.408 25.4948 188.493C25.4948 188.578 25.4576 188.659 25.3914 188.719C25.3252 188.779 25.2354 188.812 25.1418 188.812Z" fill="#3F3F46"/>
<path d="M173.115 120.833C173.021 120.833 172.931 120.799 172.865 120.739C172.799 120.679 172.762 120.598 172.762 120.513V106.81C172.762 106.725 172.799 106.644 172.865 106.584C172.931 106.524 173.021 106.49 173.115 106.49C173.208 106.49 173.298 106.524 173.364 106.584C173.431 106.644 173.468 106.725 173.468 106.81V120.513C173.468 120.598 173.43 120.679 173.364 120.739C173.298 120.799 173.208 120.833 173.115 120.833Z" fill="#3F3F46"/>
<path d="M178.058 113.98H168.172C168.079 113.98 167.989 113.947 167.923 113.887C167.857 113.827 167.819 113.746 167.819 113.661C167.819 113.576 167.857 113.495 167.923 113.435C167.989 113.375 168.079 113.342 168.172 113.342H178.058C178.152 113.342 178.241 113.375 178.308 113.435C178.374 113.495 178.411 113.576 178.411 113.661C178.411 113.746 178.374 113.827 178.308 113.887C178.241 113.947 178.152 113.98 178.058 113.98Z" fill="#3F3F46"/>
<path d="M50.1054 160.774C50.0118 160.774 49.922 160.74 49.8558 160.681C49.7896 160.621 49.7524 160.539 49.7524 160.455V146.751C49.7524 146.666 49.7896 146.585 49.8558 146.525C49.922 146.465 50.0118 146.432 50.1054 146.432C50.1991 146.432 50.2888 146.465 50.355 146.525C50.4212 146.585 50.4584 146.666 50.4584 146.751V160.455C50.4583 160.539 50.4211 160.621 50.355 160.681C50.2888 160.74 50.199 160.774 50.1054 160.774Z" fill="#3F3F46"/>
<path d="M55.0493 153.922H45.1635C45.0699 153.922 44.9801 153.888 44.9139 153.828C44.8477 153.768 44.8105 153.687 44.8105 153.603C44.8105 153.518 44.8477 153.437 44.9139 153.377C44.9801 153.317 45.0699 153.283 45.1635 153.283H55.0493C55.1429 153.283 55.2327 153.317 55.2989 153.377C55.3651 153.437 55.4023 153.518 55.4023 153.603C55.4023 153.687 55.3651 153.768 55.2989 153.828C55.2327 153.888 55.1429 153.922 55.0493 153.922Z" fill="#3F3F46"/>
<path d="M152.834 183.663C152.74 183.663 152.651 183.629 152.584 183.569C152.518 183.509 152.481 183.428 152.481 183.343V169.64C152.481 169.555 152.518 169.474 152.584 169.414C152.651 169.354 152.74 169.32 152.834 169.32C152.928 169.32 153.017 169.354 153.084 169.414C153.15 169.474 153.187 169.555 153.187 169.64V183.343C153.187 183.428 153.15 183.509 153.083 183.569C153.017 183.629 152.928 183.663 152.834 183.663Z" fill="#3F3F46"/>
<path d="M157.778 176.811H147.892C147.798 176.811 147.709 176.777 147.642 176.717C147.576 176.657 147.539 176.576 147.539 176.491C147.539 176.407 147.576 176.325 147.642 176.265C147.709 176.206 147.798 176.172 147.892 176.172H157.778C157.871 176.172 157.961 176.206 158.027 176.265C158.094 176.325 158.131 176.407 158.131 176.491C158.131 176.576 158.094 176.657 158.027 176.717C157.961 176.777 157.871 176.811 157.778 176.811Z" fill="#3F3F46"/>
<path d="M197.176 77.5082C197.13 77.5082 197.084 77.5 197.041 77.4839C196.998 77.4679 196.959 77.4444 196.927 77.4147C196.894 77.385 196.868 77.3498 196.85 77.3111C196.832 77.2723 196.823 77.2308 196.823 77.1888V70.3369C196.823 70.2522 196.86 70.171 196.927 70.1111C196.993 70.0512 197.083 70.0176 197.176 70.0176C197.27 70.0176 197.36 70.0512 197.426 70.1111C197.492 70.171 197.529 70.2522 197.529 70.3369V77.1888C197.529 77.2308 197.52 77.2723 197.502 77.3111C197.485 77.3498 197.459 77.385 197.426 77.4147C197.393 77.4444 197.354 77.4679 197.311 77.4839C197.269 77.5 197.223 77.5082 197.176 77.5082Z" fill="#3F3F46"/>
<path d="M199.647 74.082H194.705C194.658 74.082 194.612 74.0738 194.569 74.0577C194.527 74.0417 194.488 74.0181 194.455 73.9885C194.422 73.9588 194.396 73.9236 194.378 73.8849C194.361 73.8462 194.352 73.8046 194.352 73.7627C194.352 73.7208 194.361 73.6792 194.378 73.6405C194.396 73.6017 194.422 73.5665 194.455 73.5369C194.488 73.5072 194.527 73.4837 194.569 73.4677C194.612 73.4516 194.658 73.4434 194.705 73.4434H199.647C199.741 73.4434 199.831 73.477 199.897 73.5369C199.963 73.5968 200 73.678 200 73.7627C200 73.8474 199.963 73.9286 199.897 73.9885C199.831 74.0484 199.741 74.082 199.647 74.082Z" fill="#3F3F46"/>
</g>
<defs>
<clipPath id="clip0_4144_14888">
<rect width="200" height="200" fill="white"/>
</clipPath>
</defs>
</svg>
